<?xml version="1.0" encoding="UTF-8"?>
<svg width="1131" height="491" fill="#ffffff" version="1.1" xml:space="preserve" xmlns="http://www.w3.org/2000/svg"><defs><style>
  text {
    fill: #212529;
    font-family: Helvetica Neue, Helvetica, Arial, sans-serif;
    font-size: 16px;
  }

  marker, text {
    fill-opacity: 1;
  }

  * {
    overflow: visible;
  }
</style><clipPath id="clip0_83_4"><rect transform="translate(10 40)" width="79" height="20" fill="#fff"/></clipPath></defs><g fill="#fff"><svg class="Artemis Client" x="15" y="15" width="730" height="460" version="1.1"><g data-cy="uml-subsystem"><rect class="sc-fqkvVR uHYUy" width="100%" height="100%" fill="#fff" stroke="#000"/><g transform="translate(699 7)" stroke="#000" stroke-miterlimit="10" stroke-width="1.2"><path class="sc-gEvEer fkqzOi" d="m4.8 0h19.2v24h-19.2v-4.8h-4.8v-4.8h4.8v-4.8h-4.8v-4.8h4.8z" fill="#fff"/><path class="sc-gEvEer bFSwyf" d="m4.8 4.8h4.8v4.8h-4.8m0 4.8h4.8v4.8h-4.8" fill="none"/></g><text x="50%" y="25px" dominant-baseline="middle" font-weight="bold" pointer-events="none" text-anchor="middle"><tspan x="50%" dy="-8" font-size="85%">«subsystem»</tspan><tspan x="50%" dy="18">Artemis Client</tspan></text></g></svg><svg class="User Interface Layer" x="45" y="85" width="380" height="350" version="1.1"><g data-cy="uml-subsystem"><rect class="sc-fqkvVR uHYUy" width="100%" height="100%" fill="#fff" stroke="#000"/><g transform="translate(349 7)" stroke="#000" stroke-miterlimit="10" stroke-width="1.2"><path class="sc-gEvEer fkqzOi" d="m4.8 0h19.2v24h-19.2v-4.8h-4.8v-4.8h4.8v-4.8h-4.8v-4.8h4.8z" fill="#fff"/><path class="sc-gEvEer bFSwyf" d="m4.8 4.8h4.8v4.8h-4.8m0 4.8h4.8v4.8h-4.8" fill="none"/></g><text x="50%" y="25px" dominant-baseline="middle" font-weight="bold" pointer-events="none" text-anchor="middle"><tspan x="50%" dy="-8" font-size="85%">«subsystem»</tspan><tspan x="50%" dy="18">User Interface Layer</tspan></text></g></svg><svg class="CalendarDesktopOverviewComponent" x="75" y="155" width="320" height="100" version="1.1"><g data-cy="uml-component"><rect class="sc-fqkvVR uHYUy" width="100%" height="100%" fill="#c9ffbc" stroke="#000"/><g transform="translate(289 7)" stroke="#000" stroke-miterlimit="10" stroke-width="1.2"><path class="sc-gEvEer fkqzOi" d="m4.8 0h19.2v24h-19.2v-4.8h-4.8v-4.8h4.8v-4.8h-4.8v-4.8h4.8z" fill="#fff"/><path class="sc-gEvEer bFSwyf" d="m4.8 4.8h4.8v4.8h-4.8m0 4.8h4.8v4.8h-4.8" fill="none"/></g><text x="50%" y="50%" dominant-baseline="middle" font-weight="bold" pointer-events="none" text-anchor="middle"><tspan x="50%" dy="-8" font-size="85%">«component»</tspan><tspan x="50%" dy="18">CalendarDesktopOverviewComponent</tspan></text></g></svg><svg class="CalendarMobileOverviewComponent" x="75" y="295" width="320" height="100" version="1.1"><g data-cy="uml-component"><rect class="sc-fqkvVR uHYUy" width="100%" height="100%" fill="#c9ffbc" stroke="#000"/><g transform="translate(289 7)" stroke="#000" stroke-miterlimit="10" stroke-width="1.2"><path class="sc-gEvEer fkqzOi" d="m4.8 0h19.2v24h-19.2v-4.8h-4.8v-4.8h4.8v-4.8h-4.8v-4.8h4.8z" fill="#fff"/><path class="sc-gEvEer bFSwyf" d="m4.8 4.8h4.8v4.8h-4.8m0 4.8h4.8v4.8h-4.8" fill="none"/></g><text x="50%" y="50%" dominant-baseline="middle" font-weight="bold" pointer-events="none" text-anchor="middle"><tspan x="50%" dy="-8" font-size="85%">«component»</tspan><tspan x="50%" dy="18">CalendarMobileOverviewComponent</tspan></text></g></svg><svg class="Service Layer" x="495" y="85" width="220" height="350" version="1.1"><g data-cy="uml-subsystem"><rect class="sc-fqkvVR uHYUy" width="100%" height="100%" fill="#fff" stroke="#000"/><g transform="translate(189 7)" stroke="#000" stroke-miterlimit="10" stroke-width="1.2"><path class="sc-gEvEer fkqzOi" d="m4.8 0h19.2v24h-19.2v-4.8h-4.8v-4.8h4.8v-4.8h-4.8v-4.8h4.8z" fill="#fff"/><path class="sc-gEvEer bFSwyf" d="m4.8 4.8h4.8v4.8h-4.8m0 4.8h4.8v4.8h-4.8" fill="none"/></g><text x="50%" y="25px" dominant-baseline="middle" font-weight="bold" pointer-events="none" text-anchor="middle"><tspan x="50%" dy="-8" font-size="85%">«subsystem»</tspan><tspan x="50%" dy="18">Service Layer</tspan></text></g></svg><svg class="CalendarService" x="525" y="225" width="160" height="100" version="1.1"><g data-cy="uml-component"><rect class="sc-fqkvVR uHYUy" width="100%" height="100%" fill="#c9ffbc" stroke="#000"/><g transform="translate(129 7)" stroke="#000" stroke-miterlimit="10" stroke-width="1.2"><path class="sc-gEvEer fkqzOi" d="m4.8 0h19.2v24h-19.2v-4.8h-4.8v-4.8h4.8v-4.8h-4.8v-4.8h4.8z" fill="#fff"/><path class="sc-gEvEer bFSwyf" d="m4.8 4.8h4.8v4.8h-4.8m0 4.8h4.8v4.8h-4.8" fill="none"/></g><text x="50%" y="50%" dominant-baseline="middle" font-weight="bold" pointer-events="none" text-anchor="middle"><tspan x="50%" dy="-8" font-size="85%">«component»</tspan><tspan x="50%" dy="18">CalendarService</tspan></text></g></svg><svg class="Artemis Server" x="945" y="225" width="170" height="100" version="1.1"><g data-cy="uml-subsystem"><rect class="sc-fqkvVR uHYUy" width="100%" height="100%" fill="#fff" stroke="#000"/><g transform="translate(139 7)" stroke="#000" stroke-miterlimit="10" stroke-width="1.2"><path class="sc-gEvEer fkqzOi" d="m4.8 0h19.2v24h-19.2v-4.8h-4.8v-4.8h4.8v-4.8h-4.8v-4.8h4.8z" fill="#fff"/><path class="sc-gEvEer bFSwyf" d="m4.8 4.8h4.8v4.8h-4.8m0 4.8h4.8v4.8h-4.8" fill="none"/></g><text x="50%" y="25px" dominant-baseline="middle" font-weight="bold" pointer-events="none" text-anchor="middle"><tspan x="50%" dy="-8" font-size="85%">«subsystem»</tspan><tspan x="50%" dy="18">Artemis Server</tspan></text></g></svg><svg class="Provide Tokens" x="785" y="175" width="20" height="20" version="1.1"><circle class="sc-iGgWBj fYmGgq" cx="50%" cy="50%" r="10" fill="#fff" stroke="#000" stroke-width="2"/><text x="25" dominant-baseline="auto" font-weight="bold" pointer-events="none">Provide Tokens</text></svg><svg class="Provide Events" x="775" y="355" width="20" height="20" version="1.1"><circle class="sc-iGgWBj fYmGgq" cx="50%" cy="50%" r="10" fill="#fff" stroke="#000" stroke-width="2"/><text x="25" dominant-baseline="auto" font-weight="bold" pointer-events="none">Provide Events</text></svg><svg class="" x="395" y="205" width="130" height="70" version="1.1"><marker id="marker-0646ec5e-fe6e-4c69-871b-533cd7d383ce" markerHeight="30" markerWidth="22" orient="auto" refX="30" refY="15" viewBox="0 0 30 30"><path class="sc-gEvEer bFSwyf" d="m0 29 30-14-30-14" fill="none" stroke="#000"/></marker><polyline class="sc-aXZVg eMElBf" points="130 70 65 70 65 0 0 0" fill="none" marker-end="url(#marker-0646ec5e-fe6e-4c69-871b-533cd7d383ce)" stroke="#000" stroke-dasharray="7"/></svg><svg class="" x="395" y="275" width="130" height="70" version="1.1"><marker id="marker-d9b0bbc9-9b97-4b18-bc30-b31155c90340" markerHeight="30" markerWidth="22" orient="auto" refX="30" refY="15" viewBox="0 0 30 30"><path class="sc-gEvEer bFSwyf" d="m0 29 30-14-30-14" fill="none" stroke="#000"/></marker><polyline class="sc-aXZVg eMElBf" points="130 0 65 0 65 70 0 70" fill="none" marker-end="url(#marker-d9b0bbc9-9b97-4b18-bc30-b31155c90340)" stroke="#000" stroke-dasharray="7"/></svg><svg class="" x="795" y="325" width="235" height="40" version="1.1"><polyline class="sc-aXZVg eMElBf" points="0 40 235 40 235 0" fill="none" stroke="#000"/></svg><svg class="" x="605" y="325" width="184" height="54" version="1.1"><marker id="marker-60ba25ec-0d8b-47d1-917f-0646fe8b0cc3" markerHeight="27" markerWidth="27" orient="auto" viewBox="0 0 27 27"><path class="sc-gEvEer bFSwyf" d="m13-13.5a1 1 0 0 0 0 27" fill="none" stroke="#000" stroke-width="2"/></marker><polyline class="sc-aXZVg eMElBf" points="0 0 0 40 167 40" fill="none" marker-end="url(#marker-60ba25ec-0d8b-47d1-917f-0646fe8b0cc3)" stroke="#000"/></svg><svg class="" x="805" y="185" width="225" height="40" version="1.1"><polyline class="sc-aXZVg eMElBf" points="0 0 225 0 225 40" fill="none" stroke="#000"/></svg><svg class="" x="605" y="172" width="194" height="53" version="1.1"><marker id="marker-8f3bd6e6-4fa5-4cbd-86ab-7e6fe9fb29f9" markerHeight="27" markerWidth="27" orient="auto" viewBox="0 0 27 27"><path class="sc-gEvEer bFSwyf" d="m13-13.5a1 1 0 0 0 0 27" fill="none" stroke="#000" stroke-width="2"/></marker><polyline class="sc-aXZVg eMElBf" points="0 53 0 13 177 13" fill="none" marker-end="url(#marker-8f3bd6e6-4fa5-4cbd-86ab-7e6fe9fb29f9)" stroke="#000"/></svg></g><g transform="matrix(1.0781 0 0 1.0781 1009.4 13.942)" fill="none"><rect x=".5" y=".5" width="98" height="69" rx="2.5" fill="#fff"/><rect x=".5" y=".5" width="98" height="69" rx="2.5" stroke="#000"/><rect x="10.5" y="10.5" width="19" height="19" rx="3.5" fill="#c9ffbc"/><rect x="10.5" y="10.5" width="19" height="19" rx="3.5" stroke="#000"/><path d="m47.977 15.773v8.7273h-1.0228l-4.7556-6.8523h-0.0853v6.8523h-1.0568v-8.7273h1.0227l4.7728 6.8693h0.0852v-6.8693zm4.7226 8.8637c-0.6307 0-1.1747-0.1392-1.6321-0.4176-0.4545-0.2813-0.8054-0.6733-1.0525-1.1762-0.2443-0.5057-0.3665-1.0937-0.3665-1.7642 0-0.6704 0.1222-1.2614 0.3665-1.7727 0.2471-0.5142 0.5909-0.9148 1.0312-1.2017 0.4432-0.2898 0.9602-0.4347 1.5512-0.4347 0.3409 0 0.6775 0.0568 1.0099 0.1705 0.3324 0.1136 0.6349 0.2983 0.9077 0.554 0.2727 0.2528 0.49 0.588 0.652 1.0056 0.1619 0.4176 0.2429 0.9318 0.2429 1.5426v0.4262h-5.0455v-0.8693h4.0227c0-0.3694-0.0738-0.6989-0.2216-0.9887-0.1448-0.2897-0.3522-0.5184-0.6221-0.6861-0.2671-0.1676-0.5824-0.2514-0.946-0.2514-0.4006 0-0.7472 0.0995-1.0398 0.2983-0.2898 0.196-0.5128 0.4517-0.6691 0.7671-0.1562 0.3153-0.2343 0.6534-0.2343 1.0142v0.5795c0 0.4943 0.0852 0.9134 0.2557 1.2571 0.1733 0.3409 0.4133 0.6009 0.7201 0.7799 0.3068 0.1761 0.6634 0.2642 1.0696 0.2642 0.2642 0 0.5029-0.037 0.7159-0.1108 0.2159-0.0767 0.402-0.1904 0.5583-0.341 0.1562-0.1534 0.277-0.3437 0.3622-0.571l0.9716 0.2728c-0.1023 0.3295-0.2742 0.6193-0.5156 0.8693-0.2415 0.2471-0.5398 0.4403-0.8949 0.5795-0.3551 0.1364-0.7543 0.2046-1.1975 0.2046zm5.723-0.1364-1.9943-6.5455h1.0568l1.4148 5.0114h0.0682l1.3977-5.0114h1.0739l1.3807 4.9944h0.0681l1.4148-4.9944h1.0568l-1.9943 6.5455h-0.9886l-1.4318-5.0284h-0.1023l-1.4318 5.0284z" fill="#000"/><g clip-path="url(#clip0_83_4)"><rect x="10.5" y="40.5" width="19" height="19" rx="3.5" fill="#d0e9fc"/><rect x="10.5" y="40.5" width="19" height="19" rx="3.5" stroke="#000"/><path d="m41.415 54.5h-1.108l3.2046-8.7273h1.0909l3.2045 8.7273h-1.1079l-2.608-7.3466h-0.0682zm0.4091-3.4091h4.4659v0.9375h-4.4659zm9.6775 3.5455c-0.5454 0-1.027-0.1378-1.4446-0.4134-0.4176-0.2784-0.7443-0.6704-0.9801-1.1761-0.2358-0.5085-0.3537-1.1094-0.3537-1.8026 0-0.6875 0.1179-1.2841 0.3537-1.7898 0.2358-0.5056 0.5639-0.8963 0.9844-1.1718 0.4204-0.2756 0.9062-0.4134 1.4574-0.4134 0.4261 0 0.7628 0.071 1.0099 0.2131 0.25 0.1392 0.4404 0.2983 0.571 0.4773 0.1336 0.1761 0.2372 0.321 0.3111 0.4346h0.0852v-3.2216h1.0057v8.7273h-0.9716v-1.0057h-0.1193c-0.0739 0.1193-0.179 0.2699-0.3153 0.4517-0.1364 0.179-0.331 0.3395-0.5838 0.4816-0.2529 0.1392-0.5895 0.2088-1.01 0.2088zm0.1364-0.9034c0.4034 0 0.7443-0.1052 1.0227-0.3154 0.2784-0.2131 0.4901-0.5071 0.635-0.8821 0.1448-0.3778 0.2173-0.8139 0.2173-1.3082 0-0.4887-0.071-0.9162-0.2131-1.2827-0.142-0.3693-0.3523-0.6562-0.6307-0.8608-0.2784-0.2074-0.6221-0.3111-1.0312-0.3111-0.4262 0-0.7813 0.1094-1.0654 0.3282-0.2812 0.2159-0.4929 0.5099-0.6349 0.8821-0.1392 0.3693-0.2088 0.784-0.2088 1.2443 0 0.4659 0.071 0.8892 0.2131 1.2699 0.1448 0.3778 0.3579 0.6789 0.6392 0.9034 0.2841 0.2216 0.6363 0.3324 1.0568 0.3324zm6.7713 0.9204c-0.4148 0-0.7912-0.0781-1.1293-0.2344-0.338-0.1591-0.6065-0.3878-0.8054-0.686-0.1988-0.3012-0.2983-0.6648-0.2983-1.091 0-0.375 0.0739-0.6789 0.2216-0.9119 0.1478-0.2358 0.3452-0.4204 0.5924-0.554 0.2471-0.1335 0.5198-0.2329 0.8181-0.2983 0.3012-0.0681 0.6037-0.1221 0.9077-0.1619 0.3977-0.0511 0.7202-0.0895 0.9673-0.115 0.25-0.0285 0.4319-0.0753 0.5455-0.1407 0.1165-0.0653 0.1747-0.179 0.1747-0.3409v-0.0341c0-0.4204-0.115-0.7471-0.3452-0.9801-0.2272-0.2329-0.5724-0.3494-1.0355-0.3494-0.4801 0-0.8565 0.1051-1.1292 0.3153-0.2728 0.2102-0.4645 0.4347-0.5753 0.6733l-0.9546-0.3409c0.1705-0.3977 0.3978-0.7074 0.6819-0.929 0.2869-0.2244 0.5994-0.3807 0.9375-0.4687 0.3409-0.0909 0.6761-0.1364 1.0056-0.1364 0.2103 0 0.4517 0.0256 0.7245 0.0767 0.2755 0.0483 0.5412 0.1492 0.7968 0.3026 0.2586 0.1534 0.4731 0.3849 0.6435 0.6946 0.1705 0.3096 0.2557 0.7244 0.2557 1.2443v4.3125h-1.0057v-0.8864h-0.0511c-0.0682 0.1421-0.1818 0.2941-0.3409 0.456s-0.3708 0.2997-0.635 0.4134c-0.2642 0.1136-0.5866 0.1704-0.9673 0.1704zm0.1534-0.9034c0.3977 0 0.733-0.0781 1.0057-0.2344 0.2756-0.1562 0.4829-0.3579 0.6221-0.6051 0.1421-0.2471 0.2131-0.5071 0.2131-0.7798v-0.9205c-0.0426 0.0512-0.1364 0.098-0.2812 0.1407-0.1421 0.0397-0.3069 0.0752-0.4944 0.1065-0.1846 0.0284-0.365 0.054-0.5412 0.0767-0.1732 0.0199-0.3139 0.0369-0.4218 0.0511-0.2614 0.0341-0.5057 0.0895-0.733 0.1662-0.2244 0.0739-0.4062 0.1861-0.5454 0.3367-0.1364 0.1477-0.2046 0.3494-0.2046 0.6051 0 0.3494 0.1293 0.6136 0.3878 0.7926 0.2614 0.1761 0.5923 0.2642 0.9929 0.2642zm4.6822 3.2045v-9h0.9716v1.0398h0.1193c0.0738-0.1136 0.1761-0.2585 0.3068-0.4346 0.1335-0.179 0.3239-0.3381 0.571-0.4773 0.25-0.1421 0.5881-0.2131 1.0142-0.2131 0.5512 0 1.037 0.1378 1.4574 0.4134 0.4205 0.2755 0.7486 0.6662 0.9844 1.1718 0.2358 0.5057 0.3537 1.1023 0.3537 1.7898 0 0.6932-0.1179 1.2941-0.3537 1.8026-0.2358 0.5057-0.5625 0.8977-0.9801 1.1761-0.4176 0.2756-0.8992 0.4134-1.4446 0.4134-0.4205 0-0.7571-0.0696-1.01-0.2088-0.2528-0.1421-0.4474-0.3026-0.5838-0.4816-0.1363-0.1818-0.2415-0.3324-0.3153-0.4517h-0.0852v3.4602zm0.9886-5.7272c0 0.4943 0.0725 0.9304 0.2173 1.3082 0.1449 0.375 0.3566 0.669 0.635 0.8821 0.2784 0.2102 0.6193 0.3154 1.0227 0.3154 0.4205 0 0.7713-0.1108 1.0526-0.3324 0.2841-0.2245 0.4971-0.5256 0.6392-0.9034 0.1449-0.3807 0.2173-0.804 0.2173-1.2699 0-0.4603-0.071-0.875-0.2131-1.2443-0.1392-0.3722-0.3508-0.6662-0.6349-0.8821-0.2813-0.2188-0.635-0.3282-1.0611-0.3282-0.4091 0-0.7528 0.1037-1.0312 0.3111-0.2784 0.2046-0.4887 0.4915-0.6307 0.8608-0.1421 0.3665-0.2131 0.794-0.2131 1.2827zm9.1705-3.2728v0.8523h-3.3921v-0.8523zm-2.4034-1.5681h1.0056v6.2386c0 0.2841 0.0412 0.4972 0.1236 0.6392 0.0852 0.1392 0.1932 0.233 0.3239 0.2813 0.1335 0.0454 0.2741 0.0681 0.4219 0.0681 0.1108 0 0.2017-0.0056 0.2727-0.017 0.071-0.0142 0.1278-0.0256 0.1704-0.0341l0.2046 0.9034c-0.0682 0.0256-0.1634 0.0511-0.2855 0.0767-0.1222 0.0284-0.277 0.0426-0.4645 0.0426-0.2841 0-0.5625-0.0611-0.8352-0.1832-0.2699-0.1222-0.4944-0.3082-0.6733-0.5582-0.1762-0.25-0.2642-0.5654-0.2642-0.9461zm6.5902 8.25c-0.6307 0-1.1748-0.1392-1.6321-0.4176-0.4546-0.2813-0.8054-0.6733-1.0526-1.1762-0.2443-0.5057-0.3665-1.0937-0.3665-1.7642 0-0.6704 0.1222-1.2614 0.3665-1.7727 0.2472-0.5142 0.5909-0.9148 1.0312-1.2017 0.4432-0.2898 0.9603-0.4347 1.5512-0.4347 0.3409 0 0.6775 0.0568 1.0099 0.1705 0.3324 0.1136 0.635 0.2983 0.9077 0.554 0.2727 0.2528 0.4901 0.588 0.652 1.0056s0.2429 0.9318 0.2429 1.5426v0.4262h-5.0455v-0.8693h4.0228c0-0.3694-0.0739-0.6989-0.2216-0.9887-0.1449-0.2897-0.3523-0.5184-0.6222-0.6861-0.267-0.1676-0.5824-0.2514-0.946-0.2514-0.4006 0-0.7472 0.0995-1.0398 0.2983-0.2898 0.196-0.5128 0.4517-0.669 0.7671-0.1563 0.3153-0.2344 0.6534-0.2344 1.0142v0.5795c0 0.4943 0.0852 0.9134 0.2557 1.2571 0.1733 0.3409 0.4133 0.6009 0.7202 0.7799 0.3068 0.1761 0.6633 0.2642 1.0696 0.2642 0.2642 0 0.5028-0.037 0.7159-0.1108 0.2159-0.0767 0.402-0.1904 0.5582-0.341 0.1563-0.1534 0.277-0.3437 0.3622-0.571l0.9716 0.2728c-0.1023 0.3295-0.2741 0.6193-0.5156 0.8693-0.2415 0.2471-0.5398 0.4403-0.8949 0.5795-0.3551 0.1364-0.7543 0.2046-1.1974 0.2046zm6.7116 0c-0.5455 0-1.027-0.1378-1.4446-0.4134-0.4176-0.2784-0.7443-0.6704-0.9801-1.1761-0.2358-0.5085-0.3537-1.1094-0.3537-1.8026 0-0.6875 0.1179-1.2841 0.3537-1.7898 0.2358-0.5056 0.5639-0.8963 0.9844-1.1718 0.4204-0.2756 0.9062-0.4134 1.4573-0.4134 0.4262 0 0.7628 0.071 1.01 0.2131 0.25 0.1392 0.4403 0.2983 0.571 0.4773 0.1335 0.1761 0.2372 0.321 0.3111 0.4346h0.0852v-3.2216h1.0057v8.7273h-0.9716v-1.0057h-0.1193c-0.0739 0.1193-0.179 0.2699-0.3153 0.4517-0.1364 0.179-0.331 0.3395-0.5839 0.4816-0.2528 0.1392-0.5894 0.2088-1.0099 0.2088zm0.1364-0.9034c0.4034 0 0.7443-0.1052 1.0227-0.3154 0.2784-0.2131 0.49-0.5071 0.6349-0.8821 0.1449-0.3778 0.2174-0.8139 0.2174-1.3082 0-0.4887-0.0711-0.9162-0.2131-1.2827-0.142-0.3693-0.3523-0.6562-0.6307-0.8608-0.2784-0.2074-0.6221-0.3111-1.0312-0.3111-0.4262 0-0.7813 0.1094-1.0654 0.3282-0.2812 0.2159-0.4929 0.5099-0.6349 0.8821-0.1392 0.3693-0.2088 0.784-0.2088 1.2443 0 0.4659 0.071 0.8892 0.213 1.2699 0.1449 0.3778 0.358 0.6789 0.6392 0.9034 0.2841 0.2216 0.6364 0.3324 1.0569 0.3324z" fill="#000"/></g></g></svg>
