<svg width="507" height="70" viewBox="0 0 507 70" fill="none" xmlns="http://www.w3.org/2000/svg">
<g clip-path="url(#clip0_78_60)">
<rect width="170" height="70" rx="3" fill="white"/>
<rect width="170" height="35" stroke="black"/>
<path d="M78.2841 13.2727H79.3409V19.0511C79.3409 19.6477 79.2003 20.1804 78.919 20.6491C78.6406 21.1151 78.2472 21.483 77.7386 21.7528C77.2301 22.0199 76.6335 22.1534 75.9489 22.1534C75.2642 22.1534 74.6676 22.0199 74.1591 21.7528C73.6506 21.483 73.2557 21.1151 72.9744 20.6491C72.696 20.1804 72.5568 19.6477 72.5568 19.0511V13.2727H73.6136V18.9659C73.6136 19.392 73.7074 19.7713 73.8949 20.1037C74.0824 20.4332 74.3494 20.6932 74.696 20.8835C75.0455 21.071 75.4631 21.1648 75.9489 21.1648C76.4347 21.1648 76.8523 21.071 77.2017 20.8835C77.5511 20.6932 77.8182 20.4332 78.0028 20.1037C78.1903 19.7713 78.2841 19.392 78.2841 18.9659V13.2727ZM85.9513 16.9205L85.0479 17.1761C84.9911 17.0256 84.9073 16.8793 84.7965 16.7372C84.6886 16.5923 84.5408 16.473 84.3533 16.3793C84.1658 16.2855 83.9258 16.2386 83.6332 16.2386C83.2326 16.2386 82.8988 16.331 82.6317 16.5156C82.3675 16.6974 82.2354 16.929 82.2354 17.2102C82.2354 17.4602 82.3263 17.6577 82.5082 17.8026C82.69 17.9474 82.9741 18.0682 83.3604 18.1648L84.332 18.4034C84.9173 18.5455 85.3533 18.7628 85.6403 19.0554C85.9272 19.3452 86.0707 19.7187 86.0707 20.1761C86.0707 20.5511 85.9627 20.8864 85.7468 21.1818C85.5337 21.4773 85.2354 21.7102 84.8519 21.8807C84.4684 22.0511 84.0224 22.1364 83.5138 22.1364C82.8462 22.1364 82.2937 21.9915 81.8562 21.7017C81.4187 21.4119 81.1417 20.9886 81.0252 20.4318L81.9798 20.1932C82.0707 20.5455 82.2425 20.8097 82.4954 20.9858C82.7511 21.1619 83.0849 21.25 83.4968 21.25C83.9656 21.25 84.3377 21.1506 84.6133 20.9517C84.8917 20.75 85.0309 20.5085 85.0309 20.2273C85.0309 20 84.9513 19.8097 84.7923 19.6562C84.6332 19.5 84.3888 19.3835 84.0593 19.3068L82.9684 19.0511C82.369 18.9091 81.9286 18.6889 81.6474 18.3906C81.369 18.0895 81.2298 17.7131 81.2298 17.2614C81.2298 16.892 81.3335 16.5653 81.5408 16.2812C81.7511 15.9972 82.0366 15.7741 82.3974 15.6122C82.761 15.4503 83.1729 15.3693 83.6332 15.3693C84.2809 15.3693 84.7894 15.5114 85.1587 15.7955C85.5309 16.0795 85.7951 16.4545 85.9513 16.9205ZM90.3288 22.1364C89.6982 22.1364 89.1541 21.9972 88.6967 21.7188C88.2422 21.4375 87.8913 21.0455 87.6442 20.5426C87.3999 20.0369 87.2777 19.4489 87.2777 18.7784C87.2777 18.108 87.3999 17.517 87.6442 17.0057C87.8913 16.4915 88.2351 16.0909 88.6754 15.804C89.1186 15.5142 89.6357 15.3693 90.2266 15.3693C90.5675 15.3693 90.9041 15.4261 91.2365 15.5398C91.5689 15.6534 91.8714 15.8381 92.1442 16.0938C92.4169 16.3466 92.6342 16.6818 92.7962 17.0994C92.9581 17.517 93.0391 18.0312 93.0391 18.642V19.0682H87.9936V18.1989H92.0163C92.0163 17.8295 91.9425 17.5 91.7947 17.2102C91.6499 16.9205 91.4425 16.6918 91.1726 16.5241C90.9055 16.3565 90.5902 16.2727 90.2266 16.2727C89.826 16.2727 89.4794 16.3722 89.1868 16.571C88.897 16.767 88.674 17.0227 88.5178 17.3381C88.3615 17.6534 88.2834 17.9915 88.2834 18.3523V18.9318C88.2834 19.4261 88.3686 19.8452 88.5391 20.1889C88.7124 20.5298 88.9524 20.7898 89.2592 20.9688C89.5661 21.1449 89.9226 21.233 90.3288 21.233C90.593 21.233 90.8317 21.196 91.0447 21.1222C91.2607 21.0455 91.4467 20.9318 91.603 20.7812C91.7592 20.6278 91.88 20.4375 91.9652 20.2102L92.9368 20.483C92.8345 20.8125 92.6626 21.1023 92.4212 21.3523C92.1797 21.5994 91.8814 21.7926 91.5263 21.9318C91.1712 22.0682 90.772 22.1364 90.3288 22.1364ZM94.5689 22V15.4545H95.5405V16.4432H95.6087C95.728 16.1193 95.9439 15.8565 96.2564 15.6548C96.5689 15.4531 96.9212 15.3523 97.3132 15.3523C97.3871 15.3523 97.4794 15.3537 97.5902 15.3565C97.701 15.3594 97.7848 15.3636 97.8416 15.3693V16.392C97.8075 16.3835 97.7294 16.3707 97.6072 16.3537C97.4879 16.3338 97.3615 16.3239 97.228 16.3239C96.9098 16.3239 96.6257 16.3906 96.3757 16.5241C96.1286 16.6548 95.9325 16.8366 95.7876 17.0696C95.6456 17.2997 95.5746 17.5625 95.5746 17.858V22H94.5689Z" fill="black"/>
<rect y="35" width="170" height="35" stroke="black"/>
<path d="M11.6534 57.0682C11.4432 57.0682 11.2628 56.9929 11.1122 56.8423C10.9616 56.6918 10.8864 56.5114 10.8864 56.3011C10.8864 56.0909 10.9616 55.9105 11.1122 55.7599C11.2628 55.6094 11.4432 55.5341 11.6534 55.5341C11.8636 55.5341 12.044 55.6094 12.1946 55.7599C12.3452 55.9105 12.4205 56.0909 12.4205 56.3011C12.4205 56.4403 12.3849 56.5682 12.3139 56.6847C12.2457 56.8011 12.1534 56.8949 12.0369 56.9659C11.9233 57.0341 11.7955 57.0682 11.6534 57.0682ZM14.9581 57.0682C14.7479 57.0682 14.5675 56.9929 14.4169 56.8423C14.2663 56.6918 14.1911 56.5114 14.1911 56.3011C14.1911 56.0909 14.2663 55.9105 14.4169 55.7599C14.5675 55.6094 14.7479 55.5341 14.9581 55.5341C15.1683 55.5341 15.3487 55.6094 15.4993 55.7599C15.6499 55.9105 15.7251 56.0909 15.7251 56.3011C15.7251 56.4403 15.6896 56.5682 15.6186 56.6847C15.5504 56.8011 15.4581 56.8949 15.3416 56.9659C15.228 57.0341 15.1001 57.0682 14.9581 57.0682ZM18.2628 57.0682C18.0526 57.0682 17.8722 56.9929 17.7216 56.8423C17.571 56.6918 17.4957 56.5114 17.4957 56.3011C17.4957 56.0909 17.571 55.9105 17.7216 55.7599C17.8722 55.6094 18.0526 55.5341 18.2628 55.5341C18.473 55.5341 18.6534 55.6094 18.804 55.7599C18.9545 55.9105 19.0298 56.0909 19.0298 56.3011C19.0298 56.4403 18.9943 56.5682 18.9233 56.6847C18.8551 56.8011 18.7628 56.8949 18.6463 56.9659C18.5327 57.0341 18.4048 57.0682 18.2628 57.0682Z" fill="black"/>
</g>
<rect x="0.5" y="0.5" width="169" height="69" rx="2.5" stroke="black"/>
<g clip-path="url(#clip1_78_60)">
<rect x="273" width="234" height="70" rx="3" fill="white"/>
<rect x="273" width="234" height="35" stroke="black"/>
<path d="M304.58 16H303.523C303.46 15.696 303.351 15.429 303.195 15.1989C303.041 14.9688 302.854 14.7756 302.632 14.6193C302.413 14.4602 302.17 14.3409 301.903 14.2614C301.636 14.1818 301.358 14.142 301.068 14.142C300.54 14.142 300.061 14.2756 299.632 14.5426C299.206 14.8097 298.866 15.2031 298.614 15.723C298.364 16.2429 298.239 16.8807 298.239 17.6364C298.239 18.392 298.364 19.0298 298.614 19.5497C298.866 20.0696 299.206 20.4631 299.632 20.7301C300.061 20.9972 300.54 21.1307 301.068 21.1307C301.358 21.1307 301.636 21.0909 301.903 21.0114C302.17 20.9318 302.413 20.8139 302.632 20.6577C302.854 20.4986 303.041 20.304 303.195 20.0739C303.351 19.8409 303.46 19.5739 303.523 19.2727H304.58C304.5 19.7187 304.355 20.1179 304.145 20.4702C303.935 20.8224 303.673 21.1222 303.361 21.3693C303.048 21.6136 302.697 21.7997 302.308 21.9276C301.922 22.0554 301.509 22.1193 301.068 22.1193C300.324 22.1193 299.662 21.9375 299.082 21.5739C298.503 21.2102 298.047 20.6932 297.714 20.0227C297.382 19.3523 297.216 18.5568 297.216 17.6364C297.216 16.7159 297.382 15.9205 297.714 15.25C298.047 14.5795 298.503 14.0625 299.082 13.6989C299.662 13.3352 300.324 13.1534 301.068 13.1534C301.509 13.1534 301.922 13.2173 302.308 13.3452C302.697 13.473 303.048 13.6605 303.361 13.9077C303.673 14.152 303.935 14.4503 304.145 14.8026C304.355 15.152 304.5 15.5511 304.58 16ZM308.077 22.1534C307.662 22.1534 307.286 22.0753 306.948 21.919C306.61 21.7599 306.341 21.5312 306.142 21.233C305.944 20.9318 305.844 20.5682 305.844 20.142C305.844 19.767 305.918 19.4631 306.066 19.2301C306.213 18.9943 306.411 18.8097 306.658 18.6761C306.905 18.5426 307.178 18.4432 307.476 18.3778C307.777 18.3097 308.08 18.2557 308.384 18.2159C308.782 18.1648 309.104 18.1264 309.351 18.1009C309.601 18.0724 309.783 18.0256 309.897 17.9602C310.013 17.8949 310.071 17.7812 310.071 17.6193V17.5852C310.071 17.1648 309.956 16.8381 309.726 16.6051C309.499 16.3722 309.154 16.2557 308.691 16.2557C308.211 16.2557 307.834 16.3608 307.561 16.571C307.289 16.7812 307.097 17.0057 306.986 17.2443L306.032 16.9034C306.202 16.5057 306.429 16.196 306.713 15.9744C307 15.75 307.313 15.5937 307.651 15.5057C307.992 15.4148 308.327 15.3693 308.657 15.3693C308.867 15.3693 309.108 15.3949 309.381 15.446C309.657 15.4943 309.922 15.5952 310.178 15.7486C310.436 15.902 310.651 16.1335 310.821 16.4432C310.992 16.7528 311.077 17.1676 311.077 17.6875V22H310.071V21.1136H310.02C309.952 21.2557 309.838 21.4077 309.679 21.5696C309.52 21.7315 309.309 21.8693 309.044 21.983C308.78 22.0966 308.458 22.1534 308.077 22.1534ZM308.23 21.25C308.628 21.25 308.963 21.1719 309.236 21.0156C309.512 20.8594 309.719 20.6577 309.858 20.4105C310 20.1634 310.071 19.9034 310.071 19.6307V18.7102C310.029 18.7614 309.935 18.8082 309.79 18.8509C309.648 18.8906 309.483 18.9261 309.296 18.9574C309.111 18.9858 308.931 19.0114 308.755 19.0341C308.581 19.054 308.441 19.071 308.333 19.0852C308.071 19.1193 307.827 19.1747 307.6 19.2514C307.375 19.3253 307.194 19.4375 307.054 19.5881C306.918 19.7358 306.85 19.9375 306.85 20.1932C306.85 20.5426 306.979 20.8068 307.238 20.9858C307.499 21.1619 307.83 21.25 308.23 21.25ZM313.918 13.2727V22H312.913V13.2727H313.918ZM318.505 22.1364C317.874 22.1364 317.33 21.9972 316.873 21.7188C316.418 21.4375 316.067 21.0455 315.82 20.5426C315.576 20.0369 315.453 19.4489 315.453 18.7784C315.453 18.108 315.576 17.517 315.82 17.0057C316.067 16.4915 316.411 16.0909 316.851 15.804C317.294 15.5142 317.811 15.3693 318.402 15.3693C318.743 15.3693 319.08 15.4261 319.412 15.5398C319.745 15.6534 320.047 15.8381 320.32 16.0938C320.593 16.3466 320.81 16.6818 320.972 17.0994C321.134 17.517 321.215 18.0312 321.215 18.642V19.0682H316.169V18.1989H320.192C320.192 17.8295 320.118 17.5 319.971 17.2102C319.826 16.9205 319.618 16.6918 319.348 16.5241C319.081 16.3565 318.766 16.2727 318.402 16.2727C318.002 16.2727 317.655 16.3722 317.363 16.571C317.073 16.767 316.85 17.0227 316.694 17.3381C316.537 17.6534 316.459 17.9915 316.459 18.3523V18.9318C316.459 19.4261 316.544 19.8452 316.715 20.1889C316.888 20.5298 317.128 20.7898 317.435 20.9688C317.742 21.1449 318.098 21.233 318.505 21.233C318.769 21.233 319.007 21.196 319.221 21.1222C319.436 21.0455 319.623 20.9318 319.779 20.7812C319.935 20.6278 320.056 20.4375 320.141 20.2102L321.113 20.483C321.01 20.8125 320.838 21.1023 320.597 21.3523C320.355 21.5994 320.057 21.7926 319.702 21.9318C319.347 22.0682 318.948 22.1364 318.505 22.1364ZM323.75 18.0625V22H322.745V15.4545H323.716V16.4773H323.801C323.955 16.1449 324.188 15.8778 324.5 15.6761C324.813 15.4716 325.216 15.3693 325.711 15.3693C326.154 15.3693 326.542 15.4602 326.874 15.642C327.206 15.821 327.465 16.0938 327.65 16.4602C327.834 16.8239 327.926 17.2841 327.926 17.8409V22H326.921V17.9091C326.921 17.3949 326.787 16.9943 326.52 16.7074C326.253 16.4176 325.887 16.2727 325.421 16.2727C325.1 16.2727 324.813 16.3423 324.56 16.4815C324.31 16.6207 324.113 16.8239 323.968 17.0909C323.823 17.358 323.75 17.6818 323.75 18.0625ZM332.236 22.1364C331.69 22.1364 331.209 21.9986 330.791 21.723C330.374 21.4446 330.047 21.0526 329.811 20.5469C329.575 20.0384 329.457 19.4375 329.457 18.7443C329.457 18.0568 329.575 17.4602 329.811 16.9545C330.047 16.4489 330.375 16.0582 330.795 15.7827C331.216 15.5071 331.702 15.3693 332.253 15.3693C332.679 15.3693 333.016 15.4403 333.263 15.5824C333.513 15.7216 333.703 15.8807 333.834 16.0597C333.967 16.2358 334.071 16.3807 334.145 16.4943H334.23V13.2727H335.236V22H334.264V20.9943H334.145C334.071 21.1136 333.966 21.2642 333.83 21.446C333.693 21.625 333.499 21.7855 333.246 21.9276C332.993 22.0668 332.656 22.1364 332.236 22.1364ZM332.372 21.233C332.776 21.233 333.116 21.1278 333.395 20.9176C333.673 20.7045 333.885 20.4105 334.03 20.0355C334.175 19.6577 334.247 19.2216 334.247 18.7273C334.247 18.2386 334.176 17.8111 334.034 17.4446C333.892 17.0753 333.682 16.7884 333.403 16.5838C333.125 16.3764 332.781 16.2727 332.372 16.2727C331.946 16.2727 331.591 16.3821 331.307 16.6009C331.026 16.8168 330.814 17.1108 330.672 17.483C330.533 17.8523 330.463 18.267 330.463 18.7273C330.463 19.1932 330.534 19.6165 330.676 19.9972C330.821 20.375 331.034 20.6761 331.315 20.9006C331.599 21.1222 331.952 21.233 332.372 21.233ZM339.143 22.1534C338.729 22.1534 338.352 22.0753 338.014 21.919C337.676 21.7599 337.408 21.5312 337.209 21.233C337.01 20.9318 336.911 20.5682 336.911 20.142C336.911 19.767 336.984 19.4631 337.132 19.2301C337.28 18.9943 337.477 18.8097 337.724 18.6761C337.972 18.5426 338.244 18.4432 338.543 18.3778C338.844 18.3097 339.146 18.2557 339.45 18.2159C339.848 18.1648 340.17 18.1264 340.418 18.1009C340.668 18.0724 340.849 18.0256 340.963 17.9602C341.08 17.8949 341.138 17.7812 341.138 17.6193V17.5852C341.138 17.1648 341.023 16.8381 340.793 16.6051C340.565 16.3722 340.22 16.2557 339.757 16.2557C339.277 16.2557 338.901 16.3608 338.628 16.571C338.355 16.7812 338.163 17.0057 338.053 17.2443L337.098 16.9034C337.268 16.5057 337.496 16.196 337.78 15.9744C338.067 15.75 338.379 15.5937 338.717 15.5057C339.058 15.4148 339.393 15.3693 339.723 15.3693C339.933 15.3693 340.175 15.3949 340.447 15.446C340.723 15.4943 340.989 15.5952 341.244 15.7486C341.503 15.902 341.717 16.1335 341.888 16.4432C342.058 16.7528 342.143 17.1676 342.143 17.6875V22H341.138V21.1136H341.087C341.018 21.2557 340.905 21.4077 340.746 21.5696C340.587 21.7315 340.375 21.8693 340.111 21.983C339.847 22.0966 339.524 22.1534 339.143 22.1534ZM339.297 21.25C339.695 21.25 340.03 21.1719 340.303 21.0156C340.578 20.8594 340.786 20.6577 340.925 20.4105C341.067 20.1634 341.138 19.9034 341.138 19.6307V18.7102C341.095 18.7614 341.001 18.8082 340.857 18.8509C340.714 18.8906 340.55 18.9261 340.362 18.9574C340.178 18.9858 339.997 19.0114 339.821 19.0341C339.648 19.054 339.507 19.071 339.399 19.0852C339.138 19.1193 338.893 19.1747 338.666 19.2514C338.442 19.3253 338.26 19.4375 338.121 19.5881C337.984 19.7358 337.916 19.9375 337.916 20.1932C337.916 20.5426 338.045 20.8068 338.304 20.9858C338.565 21.1619 338.896 21.25 339.297 21.25ZM343.979 22V15.4545H344.951V16.4432H345.019C345.138 16.1193 345.354 15.8565 345.667 15.6548C345.979 15.4531 346.331 15.3523 346.723 15.3523C346.797 15.3523 346.89 15.3537 347 15.3565C347.111 15.3594 347.195 15.3636 347.252 15.3693V16.392C347.218 16.3835 347.14 16.3707 347.017 16.3537C346.898 16.3338 346.772 16.3239 346.638 16.3239C346.32 16.3239 346.036 16.3906 345.786 16.5241C345.539 16.6548 345.343 16.8366 345.198 17.0696C345.056 17.2997 344.985 17.5625 344.985 17.858V22H343.979ZM353.353 15.4545C353.302 15.0227 353.094 14.6875 352.731 14.4489C352.367 14.2102 351.921 14.0909 351.393 14.0909C351.006 14.0909 350.668 14.1534 350.379 14.2784C350.092 14.4034 349.867 14.5753 349.705 14.794C349.546 15.0128 349.467 15.2614 349.467 15.5398C349.467 15.7727 349.522 15.973 349.633 16.1406C349.746 16.3054 349.891 16.4432 350.067 16.554C350.244 16.6619 350.428 16.7514 350.621 16.8224C350.815 16.8906 350.992 16.946 351.154 16.9886L352.04 17.2273C352.268 17.2869 352.521 17.3693 352.799 17.4744C353.08 17.5795 353.349 17.723 353.604 17.9048C353.863 18.0838 354.076 18.3139 354.244 18.5952C354.411 18.8764 354.495 19.2216 354.495 19.6307C354.495 20.1023 354.371 20.5284 354.124 20.9091C353.88 21.2898 353.522 21.5923 353.05 21.8168C352.582 22.0412 352.012 22.1534 351.342 22.1534C350.717 22.1534 350.175 22.0526 349.718 21.8509C349.263 21.6491 348.906 21.3679 348.644 21.0071C348.386 20.6463 348.239 20.2273 348.205 19.75H349.296C349.325 20.0795 349.435 20.3523 349.629 20.5682C349.825 20.7812 350.072 20.9403 350.37 21.0455C350.671 21.1477 350.995 21.1989 351.342 21.1989C351.745 21.1989 352.107 21.1335 352.428 21.0028C352.749 20.8693 353.004 20.6847 353.191 20.4489C353.379 20.2102 353.472 19.9318 353.472 19.6136C353.472 19.3239 353.391 19.0881 353.229 18.9062C353.067 18.7244 352.854 18.5767 352.59 18.4631C352.326 18.3494 352.04 18.25 351.734 18.1648L350.66 17.858C349.978 17.6619 349.438 17.3821 349.04 17.0185C348.643 16.6548 348.444 16.179 348.444 15.5909C348.444 15.1023 348.576 14.6761 348.84 14.3125C349.107 13.946 349.465 13.6619 349.914 13.4602C350.366 13.2557 350.87 13.1534 351.427 13.1534C351.989 13.1534 352.489 13.2543 352.927 13.456C353.364 13.6548 353.711 13.9276 353.967 14.2741C354.225 14.6207 354.362 15.0142 354.376 15.4545H353.353ZM360.221 19.3239V15.4545H361.227V22H360.221V20.892H360.153C360 21.2244 359.761 21.5071 359.437 21.7401C359.113 21.9702 358.704 22.0852 358.21 22.0852C357.801 22.0852 357.437 21.9957 357.119 21.8168C356.801 21.6349 356.551 21.3622 356.369 20.9986C356.187 20.6321 356.096 20.1705 356.096 19.6136V15.4545H357.102V19.5455C357.102 20.0227 357.235 20.4034 357.502 20.6875C357.772 20.9716 358.116 21.1136 358.534 21.1136C358.784 21.1136 359.038 21.0497 359.297 20.9219C359.558 20.794 359.777 20.598 359.953 20.3338C360.132 20.0696 360.221 19.733 360.221 19.3239ZM363.205 22V13.2727H364.211V16.4943H364.296C364.37 16.3807 364.472 16.2358 364.603 16.0597C364.737 15.8807 364.927 15.7216 365.174 15.5824C365.424 15.4403 365.762 15.3693 366.188 15.3693C366.739 15.3693 367.225 15.5071 367.646 15.7827C368.066 16.0582 368.394 16.4489 368.63 16.9545C368.866 17.4602 368.984 18.0568 368.984 18.7443C368.984 19.4375 368.866 20.0384 368.63 20.5469C368.394 21.0526 368.067 21.4446 367.65 21.723C367.232 21.9986 366.751 22.1364 366.205 22.1364C365.785 22.1364 365.448 22.0668 365.195 21.9276C364.942 21.7855 364.748 21.625 364.612 21.446C364.475 21.2642 364.37 21.1136 364.296 20.9943H364.177V22H363.205ZM364.194 18.7273C364.194 19.2216 364.266 19.6577 364.411 20.0355C364.556 20.4105 364.768 20.7045 365.046 20.9176C365.325 21.1278 365.665 21.233 366.069 21.233C366.489 21.233 366.84 21.1222 367.121 20.9006C367.406 20.6761 367.619 20.375 367.761 19.9972C367.906 19.6165 367.978 19.1932 367.978 18.7273C367.978 18.267 367.907 17.8523 367.765 17.483C367.626 17.1108 367.414 16.8168 367.13 16.6009C366.849 16.3821 366.495 16.2727 366.069 16.2727C365.66 16.2727 365.316 16.3764 365.038 16.5838C364.759 16.7884 364.549 17.0753 364.407 17.4446C364.265 17.8111 364.194 18.2386 364.194 18.7273ZM375.158 16.9205L374.255 17.1761C374.198 17.0256 374.114 16.8793 374.004 16.7372C373.896 16.5923 373.748 16.473 373.56 16.3793C373.373 16.2855 373.133 16.2386 372.84 16.2386C372.44 16.2386 372.106 16.331 371.839 16.5156C371.575 16.6974 371.442 16.929 371.442 17.2102C371.442 17.4602 371.533 17.6577 371.715 17.8026C371.897 17.9474 372.181 18.0682 372.567 18.1648L373.539 18.4034C374.124 18.5455 374.56 18.7628 374.847 19.0554C375.134 19.3452 375.278 19.7187 375.278 20.1761C375.278 20.5511 375.17 20.8864 374.954 21.1818C374.741 21.4773 374.442 21.7102 374.059 21.8807C373.675 22.0511 373.229 22.1364 372.721 22.1364C372.053 22.1364 371.501 21.9915 371.063 21.7017C370.626 21.4119 370.349 20.9886 370.232 20.4318L371.187 20.1932C371.278 20.5455 371.45 20.8097 371.702 20.9858C371.958 21.1619 372.292 21.25 372.704 21.25C373.173 21.25 373.545 21.1506 373.82 20.9517C374.099 20.75 374.238 20.5085 374.238 20.2273C374.238 20 374.158 19.8097 373.999 19.6562C373.84 19.5 373.596 19.3835 373.266 19.3068L372.175 19.0511C371.576 18.9091 371.136 18.6889 370.854 18.3906C370.576 18.0895 370.437 17.7131 370.437 17.2614C370.437 16.892 370.54 16.5653 370.748 16.2812C370.958 15.9972 371.244 15.7741 371.604 15.6122C371.968 15.4503 372.38 15.3693 372.84 15.3693C373.488 15.3693 373.996 15.5114 374.366 15.7955C374.738 16.0795 375.002 16.4545 375.158 16.9205ZM379.451 22.1364C378.837 22.1364 378.309 21.9915 377.865 21.7017C377.422 21.4119 377.081 21.0128 376.843 20.5043C376.604 19.9957 376.485 19.4148 376.485 18.7614C376.485 18.0966 376.607 17.5099 376.851 17.0014C377.098 16.4901 377.442 16.0909 377.882 15.804C378.326 15.5142 378.843 15.3693 379.434 15.3693C379.894 15.3693 380.309 15.4545 380.678 15.625C381.047 15.7955 381.35 16.0341 381.586 16.3409C381.821 16.6477 381.968 17.0057 382.025 17.4148H381.019C380.942 17.1165 380.772 16.8523 380.507 16.6222C380.246 16.3892 379.894 16.2727 379.451 16.2727C379.059 16.2727 378.715 16.375 378.419 16.5795C378.127 16.7812 377.898 17.0668 377.733 17.4361C377.571 17.8026 377.49 18.233 377.49 18.7273C377.49 19.233 377.57 19.6733 377.729 20.0483C377.891 20.4233 378.118 20.7145 378.411 20.9219C378.706 21.1293 379.053 21.233 379.451 21.233C379.712 21.233 379.949 21.1875 380.162 21.0966C380.375 21.0057 380.556 20.875 380.703 20.7045C380.851 20.5341 380.956 20.3295 381.019 20.0909H382.025C381.968 20.4773 381.827 20.8253 381.603 21.1349C381.381 21.4418 381.087 21.6861 380.721 21.8679C380.357 22.0469 379.934 22.1364 379.451 22.1364ZM383.495 22V15.4545H384.466V16.4432H384.534C384.654 16.1193 384.87 15.8565 385.182 15.6548C385.495 15.4531 385.847 15.3523 386.239 15.3523C386.313 15.3523 386.405 15.3537 386.516 15.3565C386.627 15.3594 386.711 15.3636 386.767 15.3693V16.392C386.733 16.3835 386.655 16.3707 386.533 16.3537C386.414 16.3338 386.287 16.3239 386.154 16.3239C385.836 16.3239 385.551 16.3906 385.301 16.5241C385.054 16.6548 384.858 16.8366 384.713 17.0696C384.571 17.2997 384.5 17.5625 384.5 17.858V22H383.495ZM387.96 22V15.4545H388.965V22H387.96ZM388.471 14.3636C388.275 14.3636 388.106 14.2969 387.964 14.1634C387.825 14.0298 387.755 13.8693 387.755 13.6818C387.755 13.4943 387.825 13.3338 387.964 13.2003C388.106 13.0668 388.275 13 388.471 13C388.667 13 388.835 13.0668 388.974 13.2003C389.116 13.3338 389.187 13.4943 389.187 13.6818C389.187 13.8693 389.116 14.0298 388.974 14.1634C388.835 14.2969 388.667 14.3636 388.471 14.3636ZM390.807 24.4545V15.4545H391.779V16.4943H391.898C391.972 16.3807 392.074 16.2358 392.205 16.0597C392.338 15.8807 392.529 15.7216 392.776 15.5824C393.026 15.4403 393.364 15.3693 393.79 15.3693C394.341 15.3693 394.827 15.5071 395.248 15.7827C395.668 16.0582 395.996 16.4489 396.232 16.9545C396.468 17.4602 396.586 18.0568 396.586 18.7443C396.586 19.4375 396.468 20.0384 396.232 20.5469C395.996 21.0526 395.669 21.4446 395.252 21.723C394.834 21.9986 394.353 22.1364 393.807 22.1364C393.387 22.1364 393.05 22.0668 392.797 21.9276C392.544 21.7855 392.35 21.625 392.213 21.446C392.077 21.2642 391.972 21.1136 391.898 20.9943H391.813V24.4545H390.807ZM391.796 18.7273C391.796 19.2216 391.868 19.6577 392.013 20.0355C392.158 20.4105 392.37 20.7045 392.648 20.9176C392.926 21.1278 393.267 21.233 393.671 21.233C394.091 21.233 394.442 21.1222 394.723 20.9006C395.007 20.6761 395.221 20.375 395.363 19.9972C395.507 19.6165 395.58 19.1932 395.58 18.7273C395.58 18.267 395.509 17.8523 395.367 17.483C395.228 17.1108 395.016 16.8168 394.732 16.6009C394.451 16.3821 394.097 16.2727 393.671 16.2727C393.262 16.2727 392.918 16.3764 392.64 16.5838C392.361 16.7884 392.151 17.0753 392.009 17.4446C391.867 17.8111 391.796 18.2386 391.796 18.7273ZM400.966 15.4545V16.3068H397.574V15.4545H400.966ZM398.563 13.8864H399.569V20.125C399.569 20.4091 399.61 20.6222 399.692 20.7642C399.777 20.9034 399.885 20.9972 400.016 21.0455C400.15 21.0909 400.29 21.1136 400.438 21.1136C400.549 21.1136 400.64 21.108 400.711 21.0966C400.782 21.0824 400.838 21.071 400.881 21.0625L401.086 21.9659C401.017 21.9915 400.922 22.017 400.8 22.0426C400.678 22.071 400.523 22.0852 400.336 22.0852C400.051 22.0852 399.773 22.0241 399.5 21.902C399.23 21.7798 399.006 21.5938 398.827 21.3438C398.651 21.0938 398.563 20.7784 398.563 20.3977V13.8864ZM402.479 22V15.4545H403.485V22H402.479ZM402.99 14.3636C402.794 14.3636 402.625 14.2969 402.483 14.1634C402.344 14.0298 402.275 13.8693 402.275 13.6818C402.275 13.4943 402.344 13.3338 402.483 13.2003C402.625 13.0668 402.794 13 402.99 13C403.186 13 403.354 13.0668 403.493 13.2003C403.635 13.3338 403.706 13.4943 403.706 13.6818C403.706 13.8693 403.635 14.0298 403.493 14.1634C403.354 14.2969 403.186 14.3636 402.99 14.3636ZM407.986 22.1364C407.395 22.1364 406.876 21.9957 406.43 21.7145C405.987 21.4332 405.641 21.0398 405.391 20.5341C405.143 20.0284 405.02 19.4375 405.02 18.7614C405.02 18.0795 405.143 17.4844 405.391 16.9759C405.641 16.4673 405.987 16.0724 406.43 15.7912C406.876 15.5099 407.395 15.3693 407.986 15.3693C408.577 15.3693 409.094 15.5099 409.537 15.7912C409.983 16.0724 410.33 16.4673 410.577 16.9759C410.827 17.4844 410.952 18.0795 410.952 18.7614C410.952 19.4375 410.827 20.0284 410.577 20.5341C410.33 21.0398 409.983 21.4332 409.537 21.7145C409.094 21.9957 408.577 22.1364 407.986 22.1364ZM407.986 21.233C408.435 21.233 408.804 21.1179 409.094 20.8878C409.384 20.6577 409.598 20.3551 409.737 19.9801C409.876 19.6051 409.946 19.1989 409.946 18.7614C409.946 18.3239 409.876 17.9162 409.737 17.5384C409.598 17.1605 409.384 16.8551 409.094 16.6222C408.804 16.3892 408.435 16.2727 407.986 16.2727C407.537 16.2727 407.168 16.3892 406.878 16.6222C406.588 16.8551 406.374 17.1605 406.234 17.5384C406.095 17.9162 406.026 18.3239 406.026 18.7614C406.026 19.1989 406.095 19.6051 406.234 19.9801C406.374 20.3551 406.588 20.6577 406.878 20.8878C407.168 21.1179 407.537 21.233 407.986 21.233ZM413.493 18.0625V22H412.487V15.4545H413.458V16.4773H413.544C413.697 16.1449 413.93 15.8778 414.243 15.6761C414.555 15.4716 414.958 15.3693 415.453 15.3693C415.896 15.3693 416.284 15.4602 416.616 15.642C416.949 15.821 417.207 16.0938 417.392 16.4602C417.576 16.8239 417.669 17.2841 417.669 17.8409V22H416.663V17.9091C416.663 17.3949 416.529 16.9943 416.262 16.7074C415.995 16.4176 415.629 16.2727 415.163 16.2727C414.842 16.2727 414.555 16.3423 414.302 16.4815C414.052 16.6207 413.855 16.8239 413.71 17.0909C413.565 17.358 413.493 17.6818 413.493 18.0625ZM418.615 14.2102V13.2727H425.16V14.2102H422.416V22H421.359V14.2102H418.615ZM428.365 22.1364C427.774 22.1364 427.255 21.9957 426.809 21.7145C426.366 21.4332 426.02 21.0398 425.77 20.5341C425.522 20.0284 425.399 19.4375 425.399 18.7614C425.399 18.0795 425.522 17.4844 425.77 16.9759C426.02 16.4673 426.366 16.0724 426.809 15.7912C427.255 15.5099 427.774 15.3693 428.365 15.3693C428.956 15.3693 429.473 15.5099 429.916 15.7912C430.362 16.0724 430.708 16.4673 430.956 16.9759C431.206 17.4844 431.331 18.0795 431.331 18.7614C431.331 19.4375 431.206 20.0284 430.956 20.5341C430.708 21.0398 430.362 21.4332 429.916 21.7145C429.473 21.9957 428.956 22.1364 428.365 22.1364ZM428.365 21.233C428.814 21.233 429.183 21.1179 429.473 20.8878C429.762 20.6577 429.977 20.3551 430.116 19.9801C430.255 19.6051 430.325 19.1989 430.325 18.7614C430.325 18.3239 430.255 17.9162 430.116 17.5384C429.977 17.1605 429.762 16.8551 429.473 16.6222C429.183 16.3892 428.814 16.2727 428.365 16.2727C427.916 16.2727 427.547 16.3892 427.257 16.6222C426.967 16.8551 426.752 17.1605 426.613 17.5384C426.474 17.9162 426.404 18.3239 426.404 18.7614C426.404 19.1989 426.474 19.6051 426.613 19.9801C426.752 20.3551 426.967 20.6577 427.257 20.8878C427.547 21.1179 427.916 21.233 428.365 21.233ZM433.803 19.6136L433.786 18.3693H433.991L436.854 15.4545H438.099L435.048 18.5398H434.962L433.803 19.6136ZM432.866 22V13.2727H433.871V22H432.866ZM437.025 22L434.468 18.7614L435.184 18.0625L438.303 22H437.025ZM441.868 22.1364C441.237 22.1364 440.693 21.9972 440.236 21.7188C439.781 21.4375 439.43 21.0455 439.183 20.5426C438.939 20.0369 438.817 19.4489 438.817 18.7784C438.817 18.108 438.939 17.517 439.183 17.0057C439.43 16.4915 439.774 16.0909 440.214 15.804C440.658 15.5142 441.175 15.3693 441.766 15.3693C442.107 15.3693 442.443 15.4261 442.776 15.5398C443.108 15.6534 443.411 15.8381 443.683 16.0938C443.956 16.3466 444.173 16.6818 444.335 17.0994C444.497 17.517 444.578 18.0312 444.578 18.642V19.0682H439.533V18.1989H443.555C443.555 17.8295 443.482 17.5 443.334 17.2102C443.189 16.9205 442.982 16.6918 442.712 16.5241C442.445 16.3565 442.129 16.2727 441.766 16.2727C441.365 16.2727 441.018 16.3722 440.726 16.571C440.436 16.767 440.213 17.0227 440.057 17.3381C439.901 17.6534 439.822 17.9915 439.822 18.3523V18.9318C439.822 19.4261 439.908 19.8452 440.078 20.1889C440.251 20.5298 440.491 20.7898 440.798 20.9688C441.105 21.1449 441.462 21.233 441.868 21.233C442.132 21.233 442.371 21.196 442.584 21.1222C442.8 21.0455 442.986 20.9318 443.142 20.7812C443.298 20.6278 443.419 20.4375 443.504 20.2102L444.476 20.483C444.374 20.8125 444.202 21.1023 443.96 21.3523C443.719 21.5994 443.42 21.7926 443.065 21.9318C442.71 22.0682 442.311 22.1364 441.868 22.1364ZM447.114 18.0625V22H446.108V15.4545H447.08V16.4773H447.165C447.318 16.1449 447.551 15.8778 447.864 15.6761C448.176 15.4716 448.58 15.3693 449.074 15.3693C449.517 15.3693 449.905 15.4602 450.237 15.642C450.57 15.821 450.828 16.0938 451.013 16.4602C451.197 16.8239 451.29 17.2841 451.29 17.8409V22H450.284V17.9091C450.284 17.3949 450.151 16.9943 449.884 16.7074C449.616 16.4176 449.25 16.2727 448.784 16.2727C448.463 16.2727 448.176 16.3423 447.923 16.4815C447.673 16.6207 447.476 16.8239 447.331 17.0909C447.186 17.358 447.114 17.6818 447.114 18.0625ZM458.037 15.4545C457.985 15.0227 457.778 14.6875 457.414 14.4489C457.051 14.2102 456.605 14.0909 456.076 14.0909C455.69 14.0909 455.352 14.1534 455.062 14.2784C454.775 14.4034 454.551 14.5753 454.389 14.794C454.23 15.0128 454.15 15.2614 454.15 15.5398C454.15 15.7727 454.206 15.973 454.316 16.1406C454.43 16.3054 454.575 16.4432 454.751 16.554C454.927 16.6619 455.112 16.7514 455.305 16.8224C455.498 16.8906 455.676 16.946 455.838 16.9886L456.724 17.2273C456.951 17.2869 457.204 17.3693 457.483 17.4744C457.764 17.5795 458.032 17.723 458.288 17.9048C458.547 18.0838 458.76 18.3139 458.927 18.5952C459.095 18.8764 459.179 19.2216 459.179 19.6307C459.179 20.1023 459.055 20.5284 458.808 20.9091C458.564 21.2898 458.206 21.5923 457.734 21.8168C457.265 22.0412 456.696 22.1534 456.025 22.1534C455.4 22.1534 454.859 22.0526 454.402 21.8509C453.947 21.6491 453.589 21.3679 453.328 21.0071C453.069 20.6463 452.923 20.2273 452.889 19.75H453.98C454.008 20.0795 454.119 20.3523 454.312 20.5682C454.508 20.7812 454.755 20.9403 455.054 21.0455C455.355 21.1477 455.679 21.1989 456.025 21.1989C456.429 21.1989 456.791 21.1335 457.112 21.0028C457.433 20.8693 457.687 20.6847 457.875 20.4489C458.062 20.2102 458.156 19.9318 458.156 19.6136C458.156 19.3239 458.075 19.0881 457.913 18.9062C457.751 18.7244 457.538 18.5767 457.274 18.4631C457.01 18.3494 456.724 18.25 456.417 18.1648L455.343 17.858C454.662 17.6619 454.122 17.3821 453.724 17.0185C453.326 16.6548 453.127 16.179 453.127 15.5909C453.127 15.1023 453.26 14.6761 453.524 14.3125C453.791 13.946 454.149 13.6619 454.598 13.4602C455.049 13.2557 455.554 13.1534 456.11 13.1534C456.673 13.1534 457.173 13.2543 457.61 13.456C458.048 13.6548 458.395 13.9276 458.65 14.2741C458.909 14.6207 459.045 15.0142 459.059 15.4545H458.037ZM463.626 15.4545V16.3068H460.234V15.4545H463.626ZM461.223 13.8864H462.229V20.125C462.229 20.4091 462.27 20.6222 462.352 20.7642C462.438 20.9034 462.545 20.9972 462.676 21.0455C462.81 21.0909 462.95 21.1136 463.098 21.1136C463.209 21.1136 463.3 21.108 463.371 21.0966C463.442 21.0824 463.499 21.071 463.541 21.0625L463.746 21.9659C463.678 21.9915 463.582 22.017 463.46 22.0426C463.338 22.071 463.183 22.0852 462.996 22.0852C462.712 22.0852 462.433 22.0241 462.161 21.902C461.891 21.7798 461.666 21.5938 461.487 21.3438C461.311 21.0938 461.223 20.7784 461.223 20.3977V13.8864ZM467.728 22.1364C467.137 22.1364 466.619 21.9957 466.173 21.7145C465.729 21.4332 465.383 21.0398 465.133 20.5341C464.886 20.0284 464.762 19.4375 464.762 18.7614C464.762 18.0795 464.886 17.4844 465.133 16.9759C465.383 16.4673 465.729 16.0724 466.173 15.7912C466.619 15.5099 467.137 15.3693 467.728 15.3693C468.319 15.3693 468.836 15.5099 469.279 15.7912C469.725 16.0724 470.072 16.4673 470.319 16.9759C470.569 17.4844 470.694 18.0795 470.694 18.7614C470.694 19.4375 470.569 20.0284 470.319 20.5341C470.072 21.0398 469.725 21.4332 469.279 21.7145C468.836 21.9957 468.319 22.1364 467.728 22.1364ZM467.728 21.233C468.177 21.233 468.546 21.1179 468.836 20.8878C469.126 20.6577 469.34 20.3551 469.479 19.9801C469.619 19.6051 469.688 19.1989 469.688 18.7614C469.688 18.3239 469.619 17.9162 469.479 17.5384C469.34 17.1605 469.126 16.8551 468.836 16.6222C468.546 16.3892 468.177 16.2727 467.728 16.2727C467.279 16.2727 466.91 16.3892 466.62 16.6222C466.33 16.8551 466.116 17.1605 465.977 17.5384C465.837 17.9162 465.768 18.3239 465.768 18.7614C465.768 19.1989 465.837 19.6051 465.977 19.9801C466.116 20.3551 466.33 20.6577 466.62 20.8878C466.91 21.1179 467.279 21.233 467.728 21.233ZM472.229 22V15.4545H473.201V16.4432H473.269C473.388 16.1193 473.604 15.8565 473.917 15.6548C474.229 15.4531 474.581 15.3523 474.973 15.3523C475.047 15.3523 475.14 15.3537 475.25 15.3565C475.361 15.3594 475.445 15.3636 475.502 15.3693V16.392C475.468 16.3835 475.39 16.3707 475.267 16.3537C475.148 16.3338 475.022 16.3239 474.888 16.3239C474.57 16.3239 474.286 16.3906 474.036 16.5241C473.789 16.6548 473.593 16.8366 473.448 17.0696C473.306 17.2997 473.235 17.5625 473.235 17.858V22H472.229ZM479.239 22.1364C478.608 22.1364 478.064 21.9972 477.607 21.7188C477.152 21.4375 476.801 21.0455 476.554 20.5426C476.31 20.0369 476.188 19.4489 476.188 18.7784C476.188 18.108 476.31 17.517 476.554 17.0057C476.801 16.4915 477.145 16.0909 477.586 15.804C478.029 15.5142 478.546 15.3693 479.137 15.3693C479.478 15.3693 479.814 15.4261 480.147 15.5398C480.479 15.6534 480.782 15.8381 481.054 16.0938C481.327 16.3466 481.544 16.6818 481.706 17.0994C481.868 17.517 481.949 18.0312 481.949 18.642V19.0682H476.904V18.1989H480.926C480.926 17.8295 480.853 17.5 480.705 17.2102C480.56 16.9205 480.353 16.6918 480.083 16.5241C479.816 16.3565 479.5 16.2727 479.137 16.2727C478.736 16.2727 478.39 16.3722 478.097 16.571C477.807 16.767 477.584 17.0227 477.428 17.3381C477.272 17.6534 477.194 17.9915 477.194 18.3523V18.9318C477.194 19.4261 477.279 19.8452 477.449 20.1889C477.623 20.5298 477.863 20.7898 478.169 20.9688C478.476 21.1449 478.833 21.233 479.239 21.233C479.503 21.233 479.742 21.196 479.955 21.1222C480.171 21.0455 480.357 20.9318 480.513 20.7812C480.669 20.6278 480.79 20.4375 480.875 20.2102L481.847 20.483C481.745 20.8125 481.573 21.1023 481.331 21.3523C481.09 21.5994 480.792 21.7926 480.436 21.9318C480.081 22.0682 479.682 22.1364 479.239 22.1364Z" fill="black"/>
<rect x="273" y="35" width="234" height="35" stroke="black"/>
<path d="M286.767 50.4545V51.3068H283.375V50.4545H286.767ZM284.364 48.8864H285.369V55.125C285.369 55.4091 285.411 55.6222 285.493 55.7642C285.578 55.9034 285.686 55.9972 285.817 56.0455C285.95 56.0909 286.091 56.1136 286.239 56.1136C286.349 56.1136 286.44 56.108 286.511 56.0966C286.582 56.0824 286.639 56.071 286.682 56.0625L286.886 56.9659C286.818 56.9915 286.723 57.017 286.601 57.0426C286.479 57.071 286.324 57.0852 286.136 57.0852C285.852 57.0852 285.574 57.0241 285.301 56.902C285.031 56.7798 284.807 56.5938 284.628 56.3438C284.452 56.0938 284.364 55.7784 284.364 55.3977V48.8864ZM290.869 57.1364C290.278 57.1364 289.759 56.9957 289.313 56.7145C288.87 56.4332 288.523 56.0398 288.273 55.5341C288.026 55.0284 287.903 54.4375 287.903 53.7614C287.903 53.0795 288.026 52.4844 288.273 51.9759C288.523 51.4673 288.87 51.0724 289.313 50.7912C289.759 50.5099 290.278 50.3693 290.869 50.3693C291.46 50.3693 291.977 50.5099 292.42 50.7912C292.866 51.0724 293.212 51.4673 293.46 51.9759C293.71 52.4844 293.835 53.0795 293.835 53.7614C293.835 54.4375 293.71 55.0284 293.46 55.5341C293.212 56.0398 292.866 56.4332 292.42 56.7145C291.977 56.9957 291.46 57.1364 290.869 57.1364ZM290.869 56.233C291.317 56.233 291.687 56.1179 291.977 55.8878C292.266 55.6577 292.481 55.3551 292.62 54.9801C292.759 54.6051 292.829 54.1989 292.829 53.7614C292.829 53.3239 292.759 52.9162 292.62 52.5384C292.481 52.1605 292.266 51.8551 291.977 51.6222C291.687 51.3892 291.317 51.2727 290.869 51.2727C290.42 51.2727 290.05 51.3892 289.761 51.6222C289.471 51.8551 289.256 52.1605 289.117 52.5384C288.978 52.9162 288.908 53.3239 288.908 53.7614C288.908 54.1989 288.978 54.6051 289.117 54.9801C289.256 55.3551 289.471 55.6577 289.761 55.8878C290.05 56.1179 290.42 56.233 290.869 56.233ZM296.307 54.6136L296.29 53.3693H296.495L299.358 50.4545H300.603L297.551 53.5398H297.466L296.307 54.6136ZM295.37 57V48.2727H296.375V57H295.37ZM299.529 57L296.972 53.7614L297.688 53.0625L300.807 57H299.529ZM304.372 57.1364C303.741 57.1364 303.197 56.9972 302.74 56.7188C302.285 56.4375 301.934 56.0455 301.687 55.5426C301.443 55.0369 301.321 54.4489 301.321 53.7784C301.321 53.108 301.443 52.517 301.687 52.0057C301.934 51.4915 302.278 51.0909 302.718 50.804C303.162 50.5142 303.679 50.3693 304.27 50.3693C304.61 50.3693 304.947 50.4261 305.279 50.5398C305.612 50.6534 305.914 50.8381 306.187 51.0938C306.46 51.3466 306.677 51.6818 306.839 52.0994C307.001 52.517 307.082 53.0312 307.082 53.642V54.0682H302.037V53.1989H306.059C306.059 52.8295 305.985 52.5 305.838 52.2102C305.693 51.9205 305.485 51.6918 305.216 51.5241C304.949 51.3565 304.633 51.2727 304.27 51.2727C303.869 51.2727 303.522 51.3722 303.23 51.571C302.94 51.767 302.717 52.0227 302.561 52.3381C302.404 52.6534 302.326 52.9915 302.326 53.3523V53.9318C302.326 54.4261 302.412 54.8452 302.582 55.1889C302.755 55.5298 302.995 55.7898 303.302 55.9688C303.609 56.1449 303.966 56.233 304.372 56.233C304.636 56.233 304.875 56.196 305.088 56.1222C305.304 56.0455 305.49 55.9318 305.646 55.7812C305.802 55.6278 305.923 55.4375 306.008 55.2102L306.98 55.483C306.877 55.8125 306.706 56.1023 306.464 56.3523C306.223 56.5994 305.924 56.7926 305.569 56.9318C305.214 57.0682 304.815 57.1364 304.372 57.1364ZM309.618 53.0625V57H308.612V50.4545H309.583V51.4773H309.669C309.822 51.1449 310.055 50.8778 310.368 50.6761C310.68 50.4716 311.083 50.3693 311.578 50.3693C312.021 50.3693 312.409 50.4602 312.741 50.642C313.074 50.821 313.332 51.0938 313.517 51.4602C313.701 51.8239 313.794 52.2841 313.794 52.8409V57H312.788V52.9091C312.788 52.3949 312.654 51.9943 312.387 51.7074C312.12 51.4176 311.754 51.2727 311.288 51.2727C310.967 51.2727 310.68 51.3423 310.427 51.4815C310.177 51.6207 309.98 51.8239 309.835 52.0909C309.69 52.358 309.618 52.6818 309.618 53.0625ZM316.364 57.0682C316.154 57.0682 315.974 56.9929 315.823 56.8423C315.673 56.6918 315.597 56.5114 315.597 56.3011C315.597 56.0909 315.673 55.9105 315.823 55.7599C315.974 55.6094 316.154 55.5341 316.364 55.5341C316.575 55.5341 316.755 55.6094 316.906 55.7599C317.056 55.9105 317.131 56.0909 317.131 56.3011C317.131 56.4403 317.096 56.5682 317.025 56.6847C316.957 56.8011 316.864 56.8949 316.748 56.9659C316.634 57.0341 316.506 57.0682 316.364 57.0682ZM316.364 52.2102C316.154 52.2102 315.974 52.1349 315.823 51.9844C315.673 51.8338 315.597 51.6534 315.597 51.4432C315.597 51.233 315.673 51.0526 315.823 50.902C315.974 50.7514 316.154 50.6761 316.364 50.6761C316.575 50.6761 316.755 50.7514 316.906 50.902C317.056 51.0526 317.131 51.233 317.131 51.4432C317.131 51.5824 317.096 51.7102 317.025 51.8267C316.957 51.9432 316.864 52.0369 316.748 52.108C316.634 52.1761 316.506 52.2102 316.364 52.2102ZM327.22 50.4545C327.169 50.0227 326.962 49.6875 326.598 49.4489C326.234 49.2102 325.788 49.0909 325.26 49.0909C324.874 49.0909 324.536 49.1534 324.246 49.2784C323.959 49.4034 323.734 49.5753 323.572 49.794C323.413 50.0128 323.334 50.2614 323.334 50.5398C323.334 50.7727 323.389 50.973 323.5 51.1406C323.614 51.3054 323.759 51.4432 323.935 51.554C324.111 51.6619 324.295 51.7514 324.489 51.8224C324.682 51.8906 324.859 51.946 325.021 51.9886L325.908 52.2273C326.135 52.2869 326.388 52.3693 326.666 52.4744C326.947 52.5795 327.216 52.723 327.472 52.9048C327.73 53.0838 327.943 53.3139 328.111 53.5952C328.278 53.8764 328.362 54.2216 328.362 54.6307C328.362 55.1023 328.239 55.5284 327.991 55.9091C327.747 56.2898 327.389 56.5923 326.918 56.8168C326.449 57.0412 325.879 57.1534 325.209 57.1534C324.584 57.1534 324.043 57.0526 323.585 56.8509C323.131 56.6491 322.773 56.3679 322.511 56.0071C322.253 55.6463 322.107 55.2273 322.072 54.75H323.163C323.192 55.0795 323.303 55.3523 323.496 55.5682C323.692 55.7812 323.939 55.9403 324.237 56.0455C324.538 56.1477 324.862 56.1989 325.209 56.1989C325.612 56.1989 325.974 56.1335 326.295 56.0028C326.616 55.8693 326.871 55.6847 327.058 55.4489C327.246 55.2102 327.339 54.9318 327.339 54.6136C327.339 54.3239 327.259 54.0881 327.097 53.9062C326.935 53.7244 326.722 53.5767 326.457 53.4631C326.193 53.3494 325.908 53.25 325.601 53.1648L324.527 52.858C323.845 52.6619 323.305 52.3821 322.908 52.0185C322.51 51.6548 322.311 51.179 322.311 50.5909C322.311 50.1023 322.443 49.6761 322.707 49.3125C322.974 48.946 323.332 48.6619 323.781 48.4602C324.233 48.2557 324.737 48.1534 325.294 48.1534C325.857 48.1534 326.357 48.2543 326.794 48.456C327.232 48.6548 327.578 48.9276 327.834 49.2741C328.092 49.6207 328.229 50.0142 328.243 50.4545H327.22ZM332.81 50.4545V51.3068H329.418V50.4545H332.81ZM330.407 48.8864H331.412V55.125C331.412 55.4091 331.453 55.6222 331.536 55.7642C331.621 55.9034 331.729 55.9972 331.86 56.0455C331.993 56.0909 332.134 56.1136 332.282 56.1136C332.392 56.1136 332.483 56.108 332.554 56.0966C332.625 56.0824 332.682 56.071 332.725 56.0625L332.929 56.9659C332.861 56.9915 332.766 57.017 332.644 57.0426C332.522 57.071 332.367 57.0852 332.179 57.0852C331.895 57.0852 331.617 57.0241 331.344 56.902C331.074 56.7798 330.85 56.5938 330.671 56.3438C330.495 56.0938 330.407 55.7784 330.407 55.3977V48.8864ZM334.323 57V50.4545H335.294V51.4432H335.363C335.482 51.1193 335.698 50.8565 336.01 50.6548C336.323 50.4531 336.675 50.3523 337.067 50.3523C337.141 50.3523 337.233 50.3537 337.344 50.3565C337.455 50.3594 337.539 50.3636 337.596 50.3693V51.392C337.561 51.3835 337.483 51.3707 337.361 51.3537C337.242 51.3338 337.115 51.3239 336.982 51.3239C336.664 51.3239 336.38 51.3906 336.13 51.5241C335.882 51.6548 335.686 51.8366 335.542 52.0696C335.4 52.2997 335.328 52.5625 335.328 52.858V57H334.323ZM338.788 57V50.4545H339.793V57H338.788ZM339.299 49.3636C339.103 49.3636 338.934 49.2969 338.792 49.1634C338.653 49.0298 338.583 48.8693 338.583 48.6818C338.583 48.4943 338.653 48.3338 338.792 48.2003C338.934 48.0668 339.103 48 339.299 48C339.495 48 339.663 48.0668 339.802 48.2003C339.944 48.3338 340.015 48.4943 340.015 48.6818C340.015 48.8693 339.944 49.0298 339.802 49.1634C339.663 49.2969 339.495 49.3636 339.299 49.3636ZM342.641 53.0625V57H341.635V50.4545H342.607V51.4773H342.692C342.846 51.1449 343.078 50.8778 343.391 50.6761C343.703 50.4716 344.107 50.3693 344.601 50.3693C345.044 50.3693 345.432 50.4602 345.765 50.642C346.097 50.821 346.355 51.0938 346.54 51.4602C346.725 51.8239 346.817 52.2841 346.817 52.8409V57H345.811V52.9091C345.811 52.3949 345.678 51.9943 345.411 51.7074C345.144 51.4176 344.777 51.2727 344.311 51.2727C343.99 51.2727 343.703 51.3423 343.451 51.4815C343.201 51.6207 343.003 51.8239 342.858 52.0909C342.713 52.358 342.641 52.6818 342.641 53.0625ZM351.297 59.5909C350.811 59.5909 350.393 59.5284 350.044 59.4034C349.695 59.2812 349.403 59.1193 349.17 58.9176C348.94 58.7188 348.757 58.5057 348.621 58.2784L349.422 57.7159C349.513 57.8352 349.628 57.9716 349.767 58.125C349.906 58.2812 350.097 58.4162 350.338 58.5298C350.582 58.6463 350.902 58.7045 351.297 58.7045C351.825 58.7045 352.261 58.5767 352.605 58.321C352.949 58.0653 353.121 57.6648 353.121 57.1193V55.7898H353.036C352.962 55.9091 352.857 56.0568 352.72 56.233C352.587 56.4062 352.393 56.5611 352.141 56.6974C351.891 56.831 351.553 56.8977 351.126 56.8977C350.598 56.8977 350.124 56.7727 349.703 56.5227C349.286 56.2727 348.955 55.9091 348.71 55.4318C348.469 54.9545 348.348 54.375 348.348 53.6932C348.348 53.0227 348.466 52.4389 348.702 51.9418C348.938 51.4418 349.266 51.0554 349.686 50.7827C350.107 50.5071 350.592 50.3693 351.143 50.3693C351.57 50.3693 351.908 50.4403 352.158 50.5824C352.411 50.7216 352.604 50.8807 352.737 51.0597C352.874 51.2358 352.979 51.3807 353.053 51.4943H353.155V50.4545H354.126V57.1875C354.126 57.75 353.999 58.2074 353.743 58.5597C353.49 58.9148 353.149 59.1747 352.72 59.3395C352.294 59.5071 351.82 59.5909 351.297 59.5909ZM351.263 55.9943C351.666 55.9943 352.007 55.902 352.286 55.7173C352.564 55.5327 352.776 55.267 352.92 54.9205C353.065 54.5739 353.138 54.1591 353.138 53.6761C353.138 53.2045 353.067 52.7884 352.925 52.4276C352.783 52.0668 352.572 51.7841 352.294 51.5795C352.016 51.375 351.672 51.2727 351.263 51.2727C350.837 51.2727 350.482 51.3807 350.197 51.5966C349.916 51.8125 349.705 52.1023 349.562 52.4659C349.423 52.8295 349.354 53.233 349.354 53.6761C349.354 54.1307 349.425 54.5327 349.567 54.8821C349.712 55.2287 349.925 55.5014 350.206 55.7003C350.49 55.8963 350.842 55.9943 351.263 55.9943Z" fill="black"/>
</g>
<rect x="273.5" y="0.5" width="233" height="69" rx="2.5" stroke="black"/>
<path d="M183.972 41.2727V50H182.915V42.3807H182.864L180.733 43.7955V42.7216L182.915 41.2727H183.972Z" fill="black"/>
<path d="M264.591 46.1818L264.659 44.3068L263.074 45.3125L262.665 44.5966L264.335 43.7273L262.665 42.858L263.074 42.142L264.659 43.1477L264.591 41.2727H265.409L265.341 43.1477L266.926 42.142L267.335 42.858L265.665 43.7273L267.335 44.5966L266.926 45.3125L265.341 44.3068L265.409 46.1818H264.591Z" fill="black"/>
<path d="M169.47 34.4697C169.177 34.7626 169.177 35.2374 169.47 35.5303L174.243 40.3033C174.536 40.5962 175.01 40.5962 175.303 40.3033C175.596 40.0104 175.596 39.5355 175.303 39.2426L171.061 35L175.303 30.7574C175.596 30.4645 175.596 29.9896 175.303 29.6967C175.01 29.4038 174.536 29.4038 174.243 29.6967L169.47 34.4697ZM273 35L273 34.25L170 34.25L170 35L170 35.75L273 35.75L273 35Z" fill="black"/>
<defs>
<clipPath id="clip0_78_60">
<rect width="170" height="70" rx="3" fill="white"/>
</clipPath>
<clipPath id="clip1_78_60">
<rect x="273" width="234" height="70" rx="3" fill="white"/>
</clipPath>
</defs>
</svg>
