<svg width="1131" height="491" xmlns="http://www.w3.org/2000/svg" xmlns:xlink="http://www.w3.org/1999/xlink" fill="#ffffff"><defs><style>
  text {
    fill: #212529;
    font-family: Helvetica Neue, Helvetica, Arial, sans-serif;
    font-size: 16px;
  }

  marker, text {
    fill-opacity: 1;
  }

  * {
    overflow: visible;
  }
</style></defs><svg x="15" y="15" width="730" height="460" class="Artemis Client" fill="#ffffff"><g data-cy="uml-subsystem"><rect width="100%" height="100%" stroke="black" fill="white" class="sc-fqkvVR uHYUy"></rect><g transform="translate(699, 7)"><path d="M 4.8 0 L 24 0 L 24 24 L 4.8 24 L 4.8 19.2 L 0 19.2 L 0 14.4 L 4.8 14.4 L 4.8 9.6 L 0 9.6 L 0 4.8 L 4.8 4.8 Z" stroke-width="1.2" stroke-miterlimit="10" stroke="black" fill="white" class="sc-gEvEer fkqzOi"></path><path d="M 4.8 4.8 L 9.6 4.8 L 9.6 9.6 L 4.8 9.6 M 4.8 14.4 L 9.6 14.4 L 9.6 19.2 L 4.8 19.2" stroke-width="1.2" stroke-miterlimit="10" stroke="black" fill="none" class="sc-gEvEer bFSwyf"></path></g><text x="50%" y="25px" dominant-baseline="middle" text-anchor="middle" font-weight="bold" pointer-events="none"><tspan x="50%" dy="-8" text-anchor="middle" font-size="85%">«subsystem»</tspan><tspan x="50%" dy="18" text-anchor="middle">Artemis Client</tspan></text></g></svg><svg x="45" y="85" width="380" height="350" class="User Interface Layer" fill="#ffffff"><g data-cy="uml-subsystem"><rect width="100%" height="100%" stroke="black" fill="white" class="sc-fqkvVR uHYUy"></rect><g transform="translate(349, 7)"><path d="M 4.8 0 L 24 0 L 24 24 L 4.8 24 L 4.8 19.2 L 0 19.2 L 0 14.4 L 4.8 14.4 L 4.8 9.6 L 0 9.6 L 0 4.8 L 4.8 4.8 Z" stroke-width="1.2" stroke-miterlimit="10" stroke="black" fill="white" class="sc-gEvEer fkqzOi"></path><path d="M 4.8 4.8 L 9.6 4.8 L 9.6 9.6 L 4.8 9.6 M 4.8 14.4 L 9.6 14.4 L 9.6 19.2 L 4.8 19.2" stroke-width="1.2" stroke-miterlimit="10" stroke="black" fill="none" class="sc-gEvEer bFSwyf"></path></g><text x="50%" y="25px" dominant-baseline="middle" text-anchor="middle" font-weight="bold" pointer-events="none"><tspan x="50%" dy="-8" text-anchor="middle" font-size="85%">«subsystem»</tspan><tspan x="50%" dy="18" text-anchor="middle">User Interface Layer</tspan></text></g></svg><svg x="75" y="155" width="320" height="100" class="CalendarDesktopOverviewComponent" fill="#ffffff"><g data-cy="uml-component"><rect width="100%" height="100%" stroke="black" fill="white" class="sc-fqkvVR uHYUy"></rect><g transform="translate(289, 7)"><path d="M 4.8 0 L 24 0 L 24 24 L 4.8 24 L 4.8 19.2 L 0 19.2 L 0 14.4 L 4.8 14.4 L 4.8 9.6 L 0 9.6 L 0 4.8 L 4.8 4.8 Z" stroke-width="1.2" stroke-miterlimit="10" stroke="black" fill="white" class="sc-gEvEer fkqzOi"></path><path d="M 4.8 4.8 L 9.6 4.8 L 9.6 9.6 L 4.8 9.6 M 4.8 14.4 L 9.6 14.4 L 9.6 19.2 L 4.8 19.2" stroke-width="1.2" stroke-miterlimit="10" stroke="black" fill="none" class="sc-gEvEer bFSwyf"></path></g><text x="50%" y="50%" dominant-baseline="middle" text-anchor="middle" font-weight="bold" pointer-events="none"><tspan x="50%" dy="-8" text-anchor="middle" font-size="85%">«component»</tspan><tspan x="50%" dy="18" text-anchor="middle">CalendarDesktopOverviewComponent</tspan></text></g></svg><svg x="75" y="295" width="320" height="100" class="CalendarMobileOverviewComponent" fill="#ffffff"><g data-cy="uml-component"><rect width="100%" height="100%" stroke="black" fill="white" class="sc-fqkvVR uHYUy"></rect><g transform="translate(289, 7)"><path d="M 4.8 0 L 24 0 L 24 24 L 4.8 24 L 4.8 19.2 L 0 19.2 L 0 14.4 L 4.8 14.4 L 4.8 9.6 L 0 9.6 L 0 4.8 L 4.8 4.8 Z" stroke-width="1.2" stroke-miterlimit="10" stroke="black" fill="white" class="sc-gEvEer fkqzOi"></path><path d="M 4.8 4.8 L 9.6 4.8 L 9.6 9.6 L 4.8 9.6 M 4.8 14.4 L 9.6 14.4 L 9.6 19.2 L 4.8 19.2" stroke-width="1.2" stroke-miterlimit="10" stroke="black" fill="none" class="sc-gEvEer bFSwyf"></path></g><text x="50%" y="50%" dominant-baseline="middle" text-anchor="middle" font-weight="bold" pointer-events="none"><tspan x="50%" dy="-8" text-anchor="middle" font-size="85%">«component»</tspan><tspan x="50%" dy="18" text-anchor="middle">CalendarMobileOverviewComponent</tspan></text></g></svg><svg x="495" y="85" width="220" height="350" class="Service Layer" fill="#ffffff"><g data-cy="uml-subsystem"><rect width="100%" height="100%" stroke="black" fill="white" class="sc-fqkvVR uHYUy"></rect><g transform="translate(189, 7)"><path d="M 4.8 0 L 24 0 L 24 24 L 4.8 24 L 4.8 19.2 L 0 19.2 L 0 14.4 L 4.8 14.4 L 4.8 9.6 L 0 9.6 L 0 4.8 L 4.8 4.8 Z" stroke-width="1.2" stroke-miterlimit="10" stroke="black" fill="white" class="sc-gEvEer fkqzOi"></path><path d="M 4.8 4.8 L 9.6 4.8 L 9.6 9.6 L 4.8 9.6 M 4.8 14.4 L 9.6 14.4 L 9.6 19.2 L 4.8 19.2" stroke-width="1.2" stroke-miterlimit="10" stroke="black" fill="none" class="sc-gEvEer bFSwyf"></path></g><text x="50%" y="25px" dominant-baseline="middle" text-anchor="middle" font-weight="bold" pointer-events="none"><tspan x="50%" dy="-8" text-anchor="middle" font-size="85%">«subsystem»</tspan><tspan x="50%" dy="18" text-anchor="middle">Service Layer</tspan></text></g></svg><svg x="525" y="225" width="160" height="100" class="CalendarService" fill="#ffffff"><g data-cy="uml-component"><rect width="100%" height="100%" stroke="black" fill="white" class="sc-fqkvVR uHYUy"></rect><g transform="translate(129, 7)"><path d="M 4.8 0 L 24 0 L 24 24 L 4.8 24 L 4.8 19.2 L 0 19.2 L 0 14.4 L 4.8 14.4 L 4.8 9.6 L 0 9.6 L 0 4.8 L 4.8 4.8 Z" stroke-width="1.2" stroke-miterlimit="10" stroke="black" fill="white" class="sc-gEvEer fkqzOi"></path><path d="M 4.8 4.8 L 9.6 4.8 L 9.6 9.6 L 4.8 9.6 M 4.8 14.4 L 9.6 14.4 L 9.6 19.2 L 4.8 19.2" stroke-width="1.2" stroke-miterlimit="10" stroke="black" fill="none" class="sc-gEvEer bFSwyf"></path></g><text x="50%" y="50%" dominant-baseline="middle" text-anchor="middle" font-weight="bold" pointer-events="none"><tspan x="50%" dy="-8" text-anchor="middle" font-size="85%">«component»</tspan><tspan x="50%" dy="18" text-anchor="middle">CalendarService</tspan></text></g></svg><svg x="945" y="225" width="170" height="100" class="Artemis Server" fill="#ffffff"><g data-cy="uml-subsystem"><rect width="100%" height="100%" stroke="black" fill="white" class="sc-fqkvVR uHYUy"></rect><g transform="translate(139, 7)"><path d="M 4.8 0 L 24 0 L 24 24 L 4.8 24 L 4.8 19.2 L 0 19.2 L 0 14.4 L 4.8 14.4 L 4.8 9.6 L 0 9.6 L 0 4.8 L 4.8 4.8 Z" stroke-width="1.2" stroke-miterlimit="10" stroke="black" fill="white" class="sc-gEvEer fkqzOi"></path><path d="M 4.8 4.8 L 9.6 4.8 L 9.6 9.6 L 4.8 9.6 M 4.8 14.4 L 9.6 14.4 L 9.6 19.2 L 4.8 19.2" stroke-width="1.2" stroke-miterlimit="10" stroke="black" fill="none" class="sc-gEvEer bFSwyf"></path></g><text x="50%" y="25px" dominant-baseline="middle" text-anchor="middle" font-weight="bold" pointer-events="none"><tspan x="50%" dy="-8" text-anchor="middle" font-size="85%">«subsystem»</tspan><tspan x="50%" dy="18" text-anchor="middle">Artemis Server</tspan></text></g></svg><svg x="785" y="175" width="20" height="20" class="Provide Tokens" fill="#ffffff"><g><circle cx="50%" cy="50%" r="10" stroke-width="2" stroke="black" fill="white" class="sc-iGgWBj fYmGgq"></circle><text x="25" dominant-baseline="auto" text-anchor="start" font-weight="bold" pointer-events="none">Provide Tokens</text></g></svg><svg x="775" y="355" width="20" height="20" class="Provide Events" fill="#ffffff"><g><circle cx="50%" cy="50%" r="10" stroke-width="2" stroke="black" fill="white" class="sc-iGgWBj fYmGgq"></circle><text x="25" dominant-baseline="auto" text-anchor="start" font-weight="bold" pointer-events="none">Provide Events</text></g></svg><svg x="395" y="205" width="130" height="70" class="" fill="#ffffff"><g><marker id="marker-0646ec5e-fe6e-4c69-871b-533cd7d383ce" viewBox="0 0 30 30" markerWidth="22" markerHeight="30" refX="30" refY="15" orient="auto" markerUnits="strokeWidth"><path d="M0,29 L30,15 L0,1" stroke="black" fill="none" class="sc-gEvEer bFSwyf"></path></marker><polyline points="130 70,65 70,65 0,0 0" stroke-width="1" stroke-dasharray="7" marker-end="url(#marker-0646ec5e-fe6e-4c69-871b-533cd7d383ce)" stroke="black" fill="none" class="sc-aXZVg eMElBf"></polyline></g></svg><svg x="395" y="275" width="130" height="70" class="" fill="#ffffff"><g><marker id="marker-d9b0bbc9-9b97-4b18-bc30-b31155c90340" viewBox="0 0 30 30" markerWidth="22" markerHeight="30" refX="30" refY="15" orient="auto" markerUnits="strokeWidth"><path d="M0,29 L30,15 L0,1" stroke="black" fill="none" class="sc-gEvEer bFSwyf"></path></marker><polyline points="130 0,65 0,65 70,0 70" stroke-width="1" stroke-dasharray="7" marker-end="url(#marker-d9b0bbc9-9b97-4b18-bc30-b31155c90340)" stroke="black" fill="none" class="sc-aXZVg eMElBf"></polyline></g></svg><svg x="795" y="325" width="235" height="40" class="" fill="#ffffff"><g><polyline points="0 40,235 40,235 0" stroke="black" fill="none" class="sc-aXZVg eMElBf"></polyline></g></svg><svg x="605" y="325" width="184" height="54" class="" fill="#ffffff"><g><marker id="marker-60ba25ec-0d8b-47d1-917f-0646fe8b0cc3" viewBox="0 0 27 27" markerWidth="27" markerHeight="27" refX="0" refY="0" orient="auto" markerUnits="strokeWidth"><path d="M 13 -13.5 a 1 1 0 0 0 0 27" stroke-width="2" stroke="black" fill="none" class="sc-gEvEer bFSwyf"></path></marker><polyline points="0 0,0 40,167 40" stroke-width="1" marker-end="url(#marker-60ba25ec-0d8b-47d1-917f-0646fe8b0cc3)" stroke="black" fill="none" class="sc-aXZVg eMElBf"></polyline></g></svg><svg x="805" y="185" width="225" height="40" class="" fill="#ffffff"><g><polyline points="0 0,225 0,225 40" stroke="black" fill="none" class="sc-aXZVg eMElBf"></polyline></g></svg><svg x="605" y="172" width="194" height="53" class="" fill="#ffffff"><g><marker id="marker-8f3bd6e6-4fa5-4cbd-86ab-7e6fe9fb29f9" viewBox="0 0 27 27" markerWidth="27" markerHeight="27" refX="0" refY="0" orient="auto" markerUnits="strokeWidth"><path d="M 13 -13.5 a 1 1 0 0 0 0 27" stroke-width="2" stroke="black" fill="none" class="sc-gEvEer bFSwyf"></path></marker><polyline points="0 53,0 13,177 13" stroke-width="1" marker-end="url(#marker-8f3bd6e6-4fa5-4cbd-86ab-7e6fe9fb29f9)" stroke="black" fill="none" class="sc-aXZVg eMElBf"></polyline></g></svg></svg>