<svg width="1431" height="681" xmlns="http://www.w3.org/2000/svg" xmlns:xlink="http://www.w3.org/1999/xlink" fill="#ffffff"><defs><style>
  text {
    fill: #212529;
    font-family: Helvetica Neue, Helvetica, Arial, sans-serif;
    font-size: 16px;
  }

  marker, text {
    fill-opacity: 1;
  }

  * {
    overflow: visible;
  }
</style></defs><svg x="245" y="175" width="20" height="20" class="Provide Tokens" fill="#ffffff"><g><circle cx="50%" cy="50%" r="10" stroke-width="2" stroke="black" fill="white" class="sc-iGgWBj fYmGgq"></circle><text x="25" dominant-baseline="auto" text-anchor="start" font-weight="bold" pointer-events="none">Provide Tokens</text></g></svg><svg x="235" y="355" width="20" height="20" class="Provide Events" fill="#ffffff"><g><circle cx="50%" cy="50%" r="10" stroke-width="2" stroke="black" fill="white" class="sc-iGgWBj fYmGgq"></circle><text x="25" dominant-baseline="auto" text-anchor="start" font-weight="bold" pointer-events="none">Provide Events</text></g></svg><svg x="405" y="15" width="1010" height="650" class="Artemis Server" fill="#ffffff"><g data-cy="uml-subsystem"><rect width="100%" height="100%" stroke="black" fill="white" class="sc-fqkvVR uHYUy"></rect><g transform="translate(979, 7)"><path d="M 4.8 0 L 24 0 L 24 24 L 4.8 24 L 4.8 19.2 L 0 19.2 L 0 14.4 L 4.8 14.4 L 4.8 9.6 L 0 9.6 L 0 4.8 L 4.8 4.8 Z" stroke-width="1.2" stroke-miterlimit="10" stroke="black" fill="white" class="sc-gEvEer fkqzOi"></path><path d="M 4.8 4.8 L 9.6 4.8 L 9.6 9.6 L 4.8 9.6 M 4.8 14.4 L 9.6 14.4 L 9.6 19.2 L 4.8 19.2" stroke-width="1.2" stroke-miterlimit="10" stroke="black" fill="none" class="sc-gEvEer bFSwyf"></path></g><text x="50%" y="25px" dominant-baseline="middle" text-anchor="middle" font-weight="bold" pointer-events="none"><tspan x="50%" dy="-8" text-anchor="middle" font-size="85%">«subsystem»</tspan><tspan x="50%" dy="18" text-anchor="middle">Artemis Server</tspan></text></g></svg><svg x="435" y="85" width="220" height="540" class="Web Layer" fill="#ffffff"><g data-cy="uml-subsystem"><rect width="100%" height="100%" stroke="black" fill="white" class="sc-fqkvVR uHYUy"></rect><g transform="translate(189, 7)"><path d="M 4.8 0 L 24 0 L 24 24 L 4.8 24 L 4.8 19.2 L 0 19.2 L 0 14.4 L 4.8 14.4 L 4.8 9.6 L 0 9.6 L 0 4.8 L 4.8 4.8 Z" stroke-width="1.2" stroke-miterlimit="10" stroke="black" fill="white" class="sc-gEvEer fkqzOi"></path><path d="M 4.8 4.8 L 9.6 4.8 L 9.6 9.6 L 4.8 9.6 M 4.8 14.4 L 9.6 14.4 L 9.6 19.2 L 4.8 19.2" stroke-width="1.2" stroke-miterlimit="10" stroke="black" fill="none" class="sc-gEvEer bFSwyf"></path></g><text x="50%" y="25px" dominant-baseline="middle" text-anchor="middle" font-weight="bold" pointer-events="none"><tspan x="50%" dy="-8" text-anchor="middle" font-size="85%">«subsystem»</tspan><tspan x="50%" dy="18" text-anchor="middle">Web Layer</tspan></text></g></svg><svg x="465" y="315" width="160" height="100" class="CalendarResource" fill="#ffffff"><g data-cy="uml-component"><rect width="100%" height="100%" stroke="black" fill="white" class="sc-fqkvVR uHYUy"></rect><g transform="translate(129, 7)"><path d="M 4.8 0 L 24 0 L 24 24 L 4.8 24 L 4.8 19.2 L 0 19.2 L 0 14.4 L 4.8 14.4 L 4.8 9.6 L 0 9.6 L 0 4.8 L 4.8 4.8 Z" stroke-width="1.2" stroke-miterlimit="10" stroke="black" fill="white" class="sc-gEvEer fkqzOi"></path><path d="M 4.8 4.8 L 9.6 4.8 L 9.6 9.6 L 4.8 9.6 M 4.8 14.4 L 9.6 14.4 L 9.6 19.2 L 4.8 19.2" stroke-width="1.2" stroke-miterlimit="10" stroke="black" fill="none" class="sc-gEvEer bFSwyf"></path></g><text x="50%" y="50%" dominant-baseline="middle" text-anchor="middle" font-weight="bold" pointer-events="none"><tspan x="50%" dy="-8" text-anchor="middle" font-size="85%">«component»</tspan><tspan x="50%" dy="18" text-anchor="middle">CalendarResource</tspan></text></g></svg><svg x="705" y="85" width="300" height="540" class="Service Layer" fill="#ffffff"><g data-cy="uml-subsystem"><rect width="100%" height="100%" stroke="black" fill="white" class="sc-fqkvVR uHYUy"></rect><g transform="translate(269, 7)"><path d="M 4.8 0 L 24 0 L 24 24 L 4.8 24 L 4.8 19.2 L 0 19.2 L 0 14.4 L 4.8 14.4 L 4.8 9.6 L 0 9.6 L 0 4.8 L 4.8 4.8 Z" stroke-width="1.2" stroke-miterlimit="10" stroke="black" fill="white" class="sc-gEvEer fkqzOi"></path><path d="M 4.8 4.8 L 9.6 4.8 L 9.6 9.6 L 4.8 9.6 M 4.8 14.4 L 9.6 14.4 L 9.6 19.2 L 4.8 19.2" stroke-width="1.2" stroke-miterlimit="10" stroke="black" fill="none" class="sc-gEvEer bFSwyf"></path></g><text x="50%" y="25px" dominant-baseline="middle" text-anchor="middle" font-weight="bold" pointer-events="none"><tspan x="50%" dy="-8" text-anchor="middle" font-size="85%">«subsystem»</tspan><tspan x="50%" dy="18" text-anchor="middle">Service Layer</tspan></text></g></svg><svg x="735" y="255" width="240" height="90" class="CalendarSubscriptionService" fill="#ffffff"><g data-cy="uml-component"><rect width="100%" height="100%" stroke="black" fill="white" class="sc-fqkvVR uHYUy"></rect><g transform="translate(209, 7)"><path d="M 4.8 0 L 24 0 L 24 24 L 4.8 24 L 4.8 19.2 L 0 19.2 L 0 14.4 L 4.8 14.4 L 4.8 9.6 L 0 9.6 L 0 4.8 L 4.8 4.8 Z" stroke-width="1.2" stroke-miterlimit="10" stroke="black" fill="white" class="sc-gEvEer fkqzOi"></path><path d="M 4.8 4.8 L 9.6 4.8 L 9.6 9.6 L 4.8 9.6 M 4.8 14.4 L 9.6 14.4 L 9.6 19.2 L 4.8 19.2" stroke-width="1.2" stroke-miterlimit="10" stroke="black" fill="none" class="sc-gEvEer bFSwyf"></path></g><text x="50%" y="50%" dominant-baseline="middle" text-anchor="middle" font-weight="bold" pointer-events="none"><tspan x="50%" dy="-8" text-anchor="middle" font-size="85%">«component»</tspan><tspan x="50%" dy="18" text-anchor="middle">CalendarSubscriptionService</tspan></text></g></svg><svg x="735" y="445" width="240" height="140" class="Event Services" fill="#ffffff"><g data-cy="uml-subsystem"><rect width="100%" height="100%" stroke="black" fill="white" class="sc-fqkvVR uHYUy"></rect><g transform="translate(209, 7)"><path d="M 4.8 0 L 24 0 L 24 24 L 4.8 24 L 4.8 19.2 L 0 19.2 L 0 14.4 L 4.8 14.4 L 4.8 9.6 L 0 9.6 L 0 4.8 L 4.8 4.8 Z" stroke-width="1.2" stroke-miterlimit="10" stroke="black" fill="white" class="sc-gEvEer fkqzOi"></path><path d="M 4.8 4.8 L 9.6 4.8 L 9.6 9.6 L 4.8 9.6 M 4.8 14.4 L 9.6 14.4 L 9.6 19.2 L 4.8 19.2" stroke-width="1.2" stroke-miterlimit="10" stroke="black" fill="none" class="sc-gEvEer bFSwyf"></path></g><text x="50%" y="25px" dominant-baseline="middle" text-anchor="middle" font-weight="bold" pointer-events="none"><tspan x="50%" dy="-8" text-anchor="middle" font-size="85%">«subsystem»</tspan><tspan x="50%" dy="18" text-anchor="middle">Event Services</tspan></text></g></svg><svg x="1055" y="85" width="330" height="540" class="Repository Layer" fill="#ffffff"><g data-cy="uml-subsystem"><rect width="100%" height="100%" stroke="black" fill="white" class="sc-fqkvVR uHYUy"></rect><g transform="translate(299, 7)"><path d="M 4.8 0 L 24 0 L 24 24 L 4.8 24 L 4.8 19.2 L 0 19.2 L 0 14.4 L 4.8 14.4 L 4.8 9.6 L 0 9.6 L 0 4.8 L 4.8 4.8 Z" stroke-width="1.2" stroke-miterlimit="10" stroke="black" fill="white" class="sc-gEvEer fkqzOi"></path><path d="M 4.8 4.8 L 9.6 4.8 L 9.6 9.6 L 4.8 9.6 M 4.8 14.4 L 9.6 14.4 L 9.6 19.2 L 4.8 19.2" stroke-width="1.2" stroke-miterlimit="10" stroke="black" fill="none" class="sc-gEvEer bFSwyf"></path></g><text x="50%" y="25px" dominant-baseline="middle" text-anchor="middle" font-weight="bold" pointer-events="none"><tspan x="50%" dy="-8" text-anchor="middle" font-size="85%">«subsystem»</tspan><tspan x="50%" dy="18" text-anchor="middle">Repository Layer</tspan></text></g></svg><svg x="1085" y="155" width="270" height="90" class="Cal.-Sub.-TokenStoreRepository" fill="#ffffff"><g data-cy="uml-component"><rect width="100%" height="100%" stroke="black" fill="white" class="sc-fqkvVR uHYUy"></rect><g transform="translate(239, 7)"><path d="M 4.8 0 L 24 0 L 24 24 L 4.8 24 L 4.8 19.2 L 0 19.2 L 0 14.4 L 4.8 14.4 L 4.8 9.6 L 0 9.6 L 0 4.8 L 4.8 4.8 Z" stroke-width="1.2" stroke-miterlimit="10" stroke="black" fill="white" class="sc-gEvEer fkqzOi"></path><path d="M 4.8 4.8 L 9.6 4.8 L 9.6 9.6 L 4.8 9.6 M 4.8 14.4 L 9.6 14.4 L 9.6 19.2 L 4.8 19.2" stroke-width="1.2" stroke-miterlimit="10" stroke="black" fill="none" class="sc-gEvEer bFSwyf"></path></g><text x="50%" y="50%" dominant-baseline="middle" text-anchor="middle" font-weight="bold" pointer-events="none"><tspan x="50%" dy="-8" text-anchor="middle" font-size="85%">«component»</tspan><tspan x="50%" dy="18" text-anchor="middle">Cal.-Sub.-TokenStoreRepository</tspan></text></g></svg><svg x="1085" y="445" width="270" height="140" class="Event Repositories" fill="#ffffff"><g data-cy="uml-subsystem"><rect width="100%" height="100%" stroke="black" fill="white" class="sc-fqkvVR uHYUy"></rect><g transform="translate(239, 7)"><path d="M 4.8 0 L 24 0 L 24 24 L 4.8 24 L 4.8 19.2 L 0 19.2 L 0 14.4 L 4.8 14.4 L 4.8 9.6 L 0 9.6 L 0 4.8 L 4.8 4.8 Z" stroke-width="1.2" stroke-miterlimit="10" stroke="black" fill="white" class="sc-gEvEer fkqzOi"></path><path d="M 4.8 4.8 L 9.6 4.8 L 9.6 9.6 L 4.8 9.6 M 4.8 14.4 L 9.6 14.4 L 9.6 19.2 L 4.8 19.2" stroke-width="1.2" stroke-miterlimit="10" stroke="black" fill="none" class="sc-gEvEer bFSwyf"></path></g><text x="50%" y="25px" dominant-baseline="middle" text-anchor="middle" font-weight="bold" pointer-events="none"><tspan x="50%" dy="-8" text-anchor="middle" font-size="85%">«subsystem»</tspan><tspan x="50%" dy="18" text-anchor="middle">Event Repositories</tspan></text></g></svg><svg x="15" y="225" width="180" height="100" class="Artemis Client" fill="#ffffff"><g data-cy="uml-subsystem"><rect width="100%" height="100%" stroke="black" fill="white" class="sc-fqkvVR uHYUy"></rect><g transform="translate(149, 7)"><path d="M 4.8 0 L 24 0 L 24 24 L 4.8 24 L 4.8 19.2 L 0 19.2 L 0 14.4 L 4.8 14.4 L 4.8 9.6 L 0 9.6 L 0 4.8 L 4.8 4.8 Z" stroke-width="1.2" stroke-miterlimit="10" stroke="black" fill="white" class="sc-gEvEer fkqzOi"></path><path d="M 4.8 4.8 L 9.6 4.8 L 9.6 9.6 L 4.8 9.6 M 4.8 14.4 L 9.6 14.4 L 9.6 19.2 L 4.8 19.2" stroke-width="1.2" stroke-miterlimit="10" stroke="black" fill="none" class="sc-gEvEer bFSwyf"></path></g><text x="50%" y="25px" dominant-baseline="middle" text-anchor="middle" font-weight="bold" pointer-events="none"><tspan x="50%" dy="-8" text-anchor="middle" font-size="85%">«subsystem»</tspan><tspan x="50%" dy="18" text-anchor="middle">Artemis Client</tspan></text></g></svg><svg x="15" y="495" width="180" height="100" class="External Client" fill="#ffffff"><g data-cy="uml-subsystem"><rect width="100%" height="100%" stroke="black" fill="white" class="sc-fqkvVR uHYUy"></rect><g transform="translate(149, 7)"><path d="M 4.8 0 L 24 0 L 24 24 L 4.8 24 L 4.8 19.2 L 0 19.2 L 0 14.4 L 4.8 14.4 L 4.8 9.6 L 0 9.6 L 0 4.8 L 4.8 4.8 Z" stroke-width="1.2" stroke-miterlimit="10" stroke="black" fill="white" class="sc-gEvEer fkqzOi"></path><path d="M 4.8 4.8 L 9.6 4.8 L 9.6 9.6 L 4.8 9.6 M 4.8 14.4 L 9.6 14.4 L 9.6 19.2 L 4.8 19.2" stroke-width="1.2" stroke-miterlimit="10" stroke="black" fill="none" class="sc-gEvEer bFSwyf"></path></g><text x="50%" y="25px" dominant-baseline="middle" text-anchor="middle" font-weight="bold" pointer-events="none"><tspan x="50%" dy="-8" text-anchor="middle" font-size="85%">«subsystem»</tspan><tspan x="50%" dy="18" text-anchor="middle">External Client</tspan></text></g></svg><svg x="235" y="535" width="20" height="20" class="Provide .ics Files" fill="#ffffff"><g><circle cx="50%" cy="50%" r="10" stroke-width="2" stroke="black" fill="white" class="sc-iGgWBj fYmGgq"></circle><text x="25" dominant-baseline="auto" text-anchor="start" font-weight="bold" pointer-events="none">Provide .ics Files</text></g></svg><svg x="255" y="365" width="210" height="1" class="" fill="#ffffff"><g><polyline points="0 0,210 0" stroke="black" fill="none" class="sc-aXZVg eMElBf"></polyline></g></svg><svg x="265" y="185" width="280" height="130" class="" fill="#ffffff"><g><polyline points="0 0,280 0,280 130" stroke="black" fill="none" class="sc-aXZVg eMElBf"></polyline></g></svg><svg x="105" y="172" width="154" height="53" class="" fill="#ffffff"><g><marker id="marker-a7c34631-b35a-4ca9-a4e5-1497d2e2c4cc" viewBox="0 0 27 27" markerWidth="27" markerHeight="27" refX="0" refY="0" orient="auto" markerUnits="strokeWidth"><path d="M 13 -13.5 a 1 1 0 0 0 0 27" stroke-width="2" stroke="black" fill="none" class="sc-gEvEer bFSwyf"></path></marker><polyline points="0 53,0 13,137 13" stroke-width="1" marker-end="url(#marker-a7c34631-b35a-4ca9-a4e5-1497d2e2c4cc)" stroke="black" fill="none" class="sc-aXZVg eMElBf"></polyline></g></svg><svg x="105" y="325" width="144" height="54" class="" fill="#ffffff"><g><marker id="marker-746e5020-af6d-46b6-a95a-ae14405b5556" viewBox="0 0 27 27" markerWidth="27" markerHeight="27" refX="0" refY="0" orient="auto" markerUnits="strokeWidth"><path d="M 13 -13.5 a 1 1 0 0 0 0 27" stroke-width="2" stroke="black" fill="none" class="sc-gEvEer bFSwyf"></path></marker><polyline points="0 0,0 40,127 40" stroke-width="1" marker-end="url(#marker-746e5020-af6d-46b6-a95a-ae14405b5556)" stroke="black" fill="none" class="sc-aXZVg eMElBf"></polyline></g></svg><svg x="625" y="300" width="110" height="65" class="" fill="#ffffff"><g><marker id="marker-574e473e-7846-454d-9bc8-ee5e694c9431" viewBox="0 0 30 30" markerWidth="22" markerHeight="30" refX="30" refY="15" orient="auto" markerUnits="strokeWidth"><path d="M0,29 L30,15 L0,1" stroke="black" fill="none" class="sc-gEvEer bFSwyf"></path></marker><polyline points="110 0,55 0,55 65,0 65" stroke-width="1" stroke-dasharray="7" marker-end="url(#marker-574e473e-7846-454d-9bc8-ee5e694c9431)" stroke="black" fill="none" class="sc-aXZVg eMElBf"></polyline></g></svg><svg x="975" y="515" width="110" height="1" class="" fill="#ffffff"><g><marker id="marker-95e4effa-c23c-485d-910f-7d3966033dad" viewBox="0 0 30 30" markerWidth="22" markerHeight="30" refX="30" refY="15" orient="auto" markerUnits="strokeWidth"><path d="M0,29 L30,15 L0,1" stroke="black" fill="none" class="sc-gEvEer bFSwyf"></path></marker><polyline points="110 0,0 0" stroke-width="1" stroke-dasharray="7" marker-end="url(#marker-95e4effa-c23c-485d-910f-7d3966033dad)" stroke="black" fill="none" class="sc-aXZVg eMElBf"></polyline></g></svg><svg x="625" y="200" width="460" height="180" class="" fill="#ffffff"><g><marker id="marker-2cda8247-f741-413c-bd22-742957db7d3e" viewBox="0 0 30 30" markerWidth="22" markerHeight="30" refX="30" refY="15" orient="auto" markerUnits="strokeWidth"><path d="M0,29 L30,15 L0,1" stroke="black" fill="none" class="sc-gEvEer bFSwyf"></path></marker><polyline points="460 0,55 0,55 165,0 165" stroke-width="1" stroke-dasharray="7" marker-end="url(#marker-2cda8247-f741-413c-bd22-742957db7d3e)" stroke="black" fill="none" class="sc-aXZVg eMElBf"></polyline></g></svg><svg x="625" y="365" width="110" height="150" class="" fill="#ffffff"><g><marker id="marker-f5e79464-35d3-4a44-81f5-0035578ff4d6" viewBox="0 0 30 30" markerWidth="22" markerHeight="30" refX="30" refY="15" orient="auto" markerUnits="strokeWidth"><path d="M0,29 L30,15 L0,1" stroke="black" fill="none" class="sc-gEvEer bFSwyf"></path></marker><polyline points="110 150,55 150,55 0,0 0" stroke-width="1" stroke-dasharray="7" marker-end="url(#marker-f5e79464-35d3-4a44-81f5-0035578ff4d6)" stroke="black" fill="none" class="sc-aXZVg eMElBf"></polyline></g></svg><svg x="255" y="415" width="290" height="130" class="" fill="#ffffff"><g><polyline points="290 0,290 130,0 130" stroke="black" fill="none" class="sc-aXZVg eMElBf"></polyline></g></svg><svg x="195" y="532" width="54" height="27" class="" fill="#ffffff"><g><marker id="marker-17c0b2c8-c55c-4c96-815d-6384a928efb8" viewBox="0 0 27 27" markerWidth="27" markerHeight="27" refX="0" refY="0" orient="auto" markerUnits="strokeWidth"><path d="M 8 -12.5 C -3.5 -7.5 -3.3 7.9 8 12.5" stroke-width="2" stroke="black" fill="none" class="sc-gEvEer bFSwyf"></path></marker><polyline points="0 13,40 13,0 13,37 13" stroke-width="1" marker-end="url(#marker-17c0b2c8-c55c-4c96-815d-6384a928efb8)" stroke="black" fill="none" class="sc-aXZVg eMElBf"></polyline></g></svg><svg x="975" y="245" width="245" height="55" class="" fill="#ffffff"><g><marker id="marker-66d46a33-9438-4053-9997-df84ebc3aa0c" viewBox="0 0 30 30" markerWidth="22" markerHeight="30" refX="30" refY="15" orient="auto" markerUnits="strokeWidth"><path d="M0,29 L30,15 L0,1" stroke="black" fill="none" class="sc-gEvEer bFSwyf"></path></marker><polyline points="0 55,245 55,245 0" stroke-width="1" stroke-dasharray="7" marker-end="url(#marker-66d46a33-9438-4053-9997-df84ebc3aa0c)" stroke="black" fill="none" class="sc-aXZVg eMElBf"></polyline></g></svg></svg>